<?xml version="1.0" encoding="UTF-8" standalone="no"?>
<!DOCTYPE svg PUBLIC "-//W3C//DTD SVG 1.1//EN"
 "http://www.w3.org/Graphics/SVG/1.1/DTD/svg11.dtd">
<!-- Generated by graphviz version 9.0.0 (20230911.1827)
 -->
<!-- Pages: 1 -->
<svg width="2026pt" height="1124pt"
 viewBox="0.00 0.00 2026.32 1124.00" xmlns="http://www.w3.org/2000/svg" xmlns:xlink="http://www.w3.org/1999/xlink">
<g id="graph0" class="graph" transform="scale(1 1) rotate(0) translate(4 1120)">
<polygon fill="white" stroke="none" points="-4,4 -4,-1120 2022.32,-1120 2022.32,4 -4,4"/>
<!-- jv -->
<g id="node1" class="node">
<title>jv</title>
<ellipse fill="none" stroke="black" cx="283" cy="-1098" rx="27" ry="18"/>
<text text-anchor="middle" x="283" y="-1092.95" font-family="Times,serif" font-size="14.00">jv</text>
</g>
<!-- rn -->
<g id="node2" class="node">
<title>rn</title>
<ellipse fill="none" stroke="black" cx="209" cy="-1026" rx="27" ry="18"/>
<text text-anchor="middle" x="209" y="-1020.95" font-family="Times,serif" font-size="14.00">rn</text>
</g>
<!-- jv&#45;&gt;rn -->
<g id="edge1" class="edge">
<title>jv&#45;&gt;rn</title>
<path fill="none" stroke="black" d="M268.02,-1082.83C257.76,-1073.13 243.94,-1060.06 232.26,-1049"/>
<polygon fill="black" stroke="black" points="234.98,-1046.75 225.31,-1042.42 230.17,-1051.84 234.98,-1046.75"/>
</g>
<!-- jn -->
<g id="node3" class="node">
<title>jn</title>
<ellipse fill="none" stroke="black" cx="190" cy="-810" rx="27" ry="18"/>
<text text-anchor="middle" x="190" y="-804.95" font-family="Times,serif" font-size="14.00">jn</text>
</g>
<!-- jv&#45;&gt;jn -->
<g id="edge2" class="edge">
<title>jv&#45;&gt;jn</title>
<path fill="none" stroke="black" d="M283.36,-1079.52C283.5,-1039.18 279.76,-937.42 242,-864 235.73,-851.8 225.68,-840.58 216.09,-831.64"/>
<polygon fill="black" stroke="black" points="218.48,-829.09 208.66,-825.11 213.85,-834.34 218.48,-829.09"/>
</g>
<!-- rn&#45;&gt;jn -->
<g id="edge29" class="edge">
<title>rn&#45;&gt;jn</title>
<path fill="none" stroke="black" d="M196.47,-1009.6C188.75,-999.45 179.18,-985.56 173,-972 159.28,-941.88 158.26,-932.82 154,-900 151.94,-884.13 149.3,-879.29 154,-864 157.18,-853.65 163.15,-843.51 169.33,-834.91"/>
<polygon fill="black" stroke="black" points="171.99,-837.19 175.33,-827.13 166.45,-832.91 171.99,-837.19"/>
</g>
<!-- bk -->
<g id="node31" class="node">
<title>bk</title>
<ellipse fill="none" stroke="black" cx="209" cy="-954" rx="27" ry="18"/>
<text text-anchor="middle" x="209" y="-948.95" font-family="Times,serif" font-size="14.00">bk</text>
</g>
<!-- rn&#45;&gt;bk -->
<g id="edge28" class="edge">
<title>rn&#45;&gt;bk</title>
<path fill="none" stroke="black" d="M209,-1007.7C209,-1000.41 209,-991.73 209,-983.54"/>
<polygon fill="black" stroke="black" points="212.5,-983.62 209,-973.62 205.5,-983.62 212.5,-983.62"/>
</g>
<!-- hm -->
<g id="node18" class="node">
<title>hm</title>
<ellipse fill="none" stroke="black" cx="159" cy="-378" rx="27" ry="18"/>
<text text-anchor="middle" x="159" y="-372.95" font-family="Times,serif" font-size="14.00">hm</text>
</g>
<!-- jn&#45;&gt;hm -->
<g id="edge76" class="edge">
<title>jn&#45;&gt;hm</title>
<path fill="none" stroke="black" d="M193.45,-791.82C202.09,-748.15 224,-633.65 224,-595 224,-595 224,-595 224,-521 224,-476.33 197.07,-430.34 177.88,-403.23"/>
<polygon fill="black" stroke="black" points="180.85,-401.36 172.12,-395.36 175.2,-405.49 180.85,-401.36"/>
</g>
<!-- ql -->
<g id="node19" class="node">
<title>ql</title>
<ellipse fill="none" stroke="black" cx="159" cy="-306" rx="27" ry="18"/>
<text text-anchor="middle" x="159" y="-300.95" font-family="Times,serif" font-size="14.00">ql</text>
</g>
<!-- jn&#45;&gt;ql -->
<g id="edge78" class="edge">
<title>jn&#45;&gt;ql</title>
<path fill="none" stroke="black" d="M163.9,-804.26C134.21,-797.75 85.63,-783.56 53,-756 17.83,-726.29 0,-713.04 0,-667 0,-667 0,-667 0,-449 0,-382.53 78.26,-339.43 124.97,-319.63"/>
<polygon fill="black" stroke="black" points="126.2,-322.91 134.14,-315.89 123.56,-316.43 126.2,-322.91"/>
</g>
<!-- hs -->
<g id="node24" class="node">
<title>hs</title>
<ellipse fill="none" stroke="black" cx="300" cy="-234" rx="27" ry="18"/>
<text text-anchor="middle" x="300" y="-228.95" font-family="Times,serif" font-size="14.00">hs</text>
</g>
<!-- jn&#45;&gt;hs -->
<g id="edge74" class="edge">
<title>jn&#45;&gt;hs</title>
<path fill="none" stroke="black" d="M213.96,-801.32C234.91,-793.35 264.48,-778.8 281,-756 304.73,-723.24 300,-707.45 300,-667 300,-667 300,-667 300,-377 300,-337.74 300,-292.38 300,-263.69"/>
<polygon fill="black" stroke="black" points="303.5,-264 300,-254 296.5,-264 303.5,-264"/>
</g>
<!-- lp -->
<g id="node32" class="node">
<title>lp</title>
<ellipse fill="none" stroke="black" cx="112" cy="-450" rx="27" ry="18"/>
<text text-anchor="middle" x="112" y="-444.95" font-family="Times,serif" font-size="14.00">lp</text>
</g>
<!-- jn&#45;&gt;lp -->
<g id="edge75" class="edge">
<title>jn&#45;&gt;lp</title>
<path fill="none" stroke="black" d="M166.91,-800.1C124.39,-782.01 38,-736.7 38,-667 38,-667 38,-667 38,-593 38,-547 68.92,-501.13 90.79,-474.45"/>
<polygon fill="black" stroke="black" points="93.31,-476.89 97.1,-467 87.97,-472.36 93.31,-476.89"/>
</g>
<!-- ss -->
<g id="node34" class="node">
<title>ss</title>
<ellipse fill="none" stroke="black" cx="112" cy="-522" rx="27" ry="18"/>
<text text-anchor="middle" x="112" y="-516.95" font-family="Times,serif" font-size="14.00">ss</text>
</g>
<!-- jn&#45;&gt;ss -->
<g id="edge80" class="edge">
<title>jn&#45;&gt;ss</title>
<path fill="none" stroke="black" d="M174.29,-795.04C163.87,-785.06 150.6,-770.82 142,-756 108.22,-697.77 105.58,-678.49 95,-612 92.49,-596.2 92.53,-591.81 95,-576 96.32,-567.56 98.75,-558.64 101.38,-550.56"/>
<polygon fill="black" stroke="black" points="104.62,-551.88 104.61,-541.29 98.01,-549.58 104.62,-551.88"/>
</g>
<!-- hn -->
<g id="node35" class="node">
<title>hn</title>
<ellipse fill="none" stroke="black" cx="735" cy="-738" rx="27" ry="18"/>
<text text-anchor="middle" x="735" y="-732.95" font-family="Times,serif" font-size="14.00">hn</text>
</g>
<!-- jn&#45;&gt;hn -->
<g id="edge77" class="edge">
<title>jn&#45;&gt;hn</title>
<path fill="none" stroke="black" d="M216.66,-805.58C305.76,-794.13 593.47,-757.18 697.24,-743.85"/>
<polygon fill="black" stroke="black" points="697.42,-747.36 706.89,-742.61 696.53,-740.41 697.42,-747.36"/>
</g>
<!-- xt -->
<g id="node46" class="node">
<title>xt</title>
<ellipse fill="none" stroke="black" cx="245" cy="-738" rx="27" ry="18"/>
<text text-anchor="middle" x="245" y="-732.95" font-family="Times,serif" font-size="14.00">xt</text>
</g>
<!-- jn&#45;&gt;xt -->
<g id="edge79" class="edge">
<title>jn&#45;&gt;xt</title>
<path fill="none" stroke="black" d="M197.19,-792.41C203.54,-783.03 212.69,-771.18 221.37,-761.03"/>
<polygon fill="black" stroke="black" points="223.78,-763.59 227.79,-753.78 218.54,-758.95 223.78,-763.59"/>
</g>
<!-- fb -->
<g id="node4" class="node">
<title>fb</title>
<ellipse fill="none" stroke="black" cx="623" cy="-810" rx="27" ry="18"/>
<text text-anchor="middle" x="623" y="-804.95" font-family="Times,serif" font-size="14.00">fb</text>
</g>
<!-- hb -->
<g id="node5" class="node">
<title>hb</title>
<ellipse fill="none" stroke="black" cx="507" cy="-450" rx="27" ry="18"/>
<text text-anchor="middle" x="507" y="-444.95" font-family="Times,serif" font-size="14.00">hb</text>
</g>
<!-- fb&#45;&gt;hb -->
<g id="edge3" class="edge">
<title>fb&#45;&gt;hb</title>
<path fill="none" stroke="black" d="M601.63,-798.66C564.04,-778.81 490,-731.52 490,-667 490,-667 490,-667 490,-593 490,-553.24 496.65,-507.67 501.63,-479.1"/>
<polygon fill="black" stroke="black" points="505.04,-479.92 503.37,-469.46 498.15,-478.68 505.04,-479.92"/>
</g>
<!-- vk -->
<g id="node6" class="node">
<title>vk</title>
<ellipse fill="none" stroke="black" cx="697" cy="-882" rx="27" ry="18"/>
<text text-anchor="middle" x="697" y="-876.95" font-family="Times,serif" font-size="14.00">vk</text>
</g>
<!-- fb&#45;&gt;vk -->
<g id="edge4" class="edge">
<title>fb&#45;&gt;vk</title>
<path fill="none" stroke="black" d="M641.6,-823.56C652.79,-832.83 666.79,-845.72 678.02,-856.95"/>
<polygon fill="black" stroke="black" points="675.43,-859.31 684.91,-864.03 680.45,-854.42 675.43,-859.31"/>
</g>
<!-- fz -->
<g id="node7" class="node">
<title>fz</title>
<ellipse fill="none" stroke="black" cx="917" cy="-738" rx="27" ry="18"/>
<text text-anchor="middle" x="917" y="-732.95" font-family="Times,serif" font-size="14.00">fz</text>
</g>
<!-- fb&#45;&gt;fz -->
<g id="edge5" class="edge">
<title>fb&#45;&gt;fz</title>
<path fill="none" stroke="black" d="M649.54,-805.68C696.92,-799.28 798.8,-783.41 881,-756 882.56,-755.48 884.14,-754.91 885.72,-754.31"/>
<polygon fill="black" stroke="black" points="886.79,-757.65 894.63,-750.52 884.06,-751.21 886.79,-757.65"/>
</g>
<!-- kl -->
<g id="node8" class="node">
<title>kl</title>
<ellipse fill="none" stroke="black" cx="621" cy="-666" rx="27" ry="18"/>
<text text-anchor="middle" x="621" y="-660.95" font-family="Times,serif" font-size="14.00">kl</text>
</g>
<!-- fb&#45;&gt;kl -->
<g id="edge6" class="edge">
<title>fb&#45;&gt;kl</title>
<path fill="none" stroke="black" d="M622.75,-791.59C622.42,-767.61 621.8,-724.14 621.4,-695.42"/>
<polygon fill="black" stroke="black" points="624.9,-695.57 621.26,-685.62 617.9,-695.67 624.9,-695.57"/>
</g>
<!-- cg -->
<g id="node9" class="node">
<title>cg</title>
<ellipse fill="none" stroke="black" cx="845" cy="-738" rx="27" ry="18"/>
<text text-anchor="middle" x="845" y="-732.95" font-family="Times,serif" font-size="14.00">cg</text>
</g>
<!-- fb&#45;&gt;cg -->
<g id="edge7" class="edge">
<title>fb&#45;&gt;cg</title>
<path fill="none" stroke="black" d="M648.16,-802.56C683.37,-793.33 749.19,-775.32 804,-756 806.73,-755.04 809.55,-753.99 812.37,-752.9"/>
<polygon fill="black" stroke="black" points="813.66,-756.15 821.64,-749.18 811.05,-749.66 813.66,-756.15"/>
</g>
<!-- pd -->
<g id="node54" class="node">
<title>pd</title>
<ellipse fill="none" stroke="black" cx="488" cy="-378" rx="27" ry="18"/>
<text text-anchor="middle" x="488" y="-372.95" font-family="Times,serif" font-size="14.00">pd</text>
</g>
<!-- hb&#45;&gt;pd -->
<g id="edge66" class="edge">
<title>hb&#45;&gt;pd</title>
<path fill="none" stroke="black" d="M502.4,-432.05C500.35,-424.49 497.87,-415.37 495.56,-406.85"/>
<polygon fill="black" stroke="black" points="498.95,-405.98 492.95,-397.25 492.2,-407.82 498.95,-405.98"/>
</g>
<!-- vk&#45;&gt;fb -->
<g id="edge68" class="edge">
<title>vk&#45;&gt;fb</title>
<path fill="none" stroke="black" d="M678.45,-868.49C667.25,-859.21 653.21,-846.28 641.96,-835.03"/>
<polygon fill="black" stroke="black" points="644.53,-832.66 635.05,-827.93 639.51,-837.54 644.53,-832.66"/>
</g>
<!-- vk&#45;&gt;cg -->
<g id="edge67" class="edge">
<title>vk&#45;&gt;cg</title>
<path fill="none" stroke="black" d="M712.01,-866.6C737.93,-841.73 791.28,-790.54 821.95,-761.12"/>
<polygon fill="black" stroke="black" points="824.07,-763.93 828.86,-754.48 819.22,-758.88 824.07,-763.93"/>
</g>
<!-- xn -->
<g id="node36" class="node">
<title>xn</title>
<ellipse fill="none" stroke="black" cx="953" cy="-666" rx="27" ry="18"/>
<text text-anchor="middle" x="953" y="-660.95" font-family="Times,serif" font-size="14.00">xn</text>
</g>
<!-- fz&#45;&gt;xn -->
<g id="edge109" class="edge">
<title>fz&#45;&gt;xn</title>
<path fill="none" stroke="black" d="M925.35,-720.76C929.58,-712.55 934.81,-702.37 939.58,-693.09"/>
<polygon fill="black" stroke="black" points="942.54,-694.99 944,-684.49 936.32,-691.79 942.54,-694.99"/>
</g>
<!-- rs -->
<g id="node55" class="node">
<title>rs</title>
<ellipse fill="none" stroke="black" cx="583" cy="-594" rx="27" ry="18"/>
<text text-anchor="middle" x="583" y="-588.95" font-family="Times,serif" font-size="14.00">rs</text>
</g>
<!-- kl&#45;&gt;rs -->
<g id="edge69" class="edge">
<title>kl&#45;&gt;rs</title>
<path fill="none" stroke="black" d="M612.19,-648.76C607.73,-640.55 602.2,-630.37 597.16,-621.09"/>
<polygon fill="black" stroke="black" points="600.33,-619.6 592.49,-612.48 594.18,-622.94 600.33,-619.6"/>
</g>
<!-- cg&#45;&gt;kl -->
<g id="edge19" class="edge">
<title>cg&#45;&gt;kl</title>
<path fill="none" stroke="black" d="M821.03,-729.51C781.39,-717.12 702,-692.31 656.05,-677.95"/>
<polygon fill="black" stroke="black" points="657.17,-674.64 646.58,-674.99 655.08,-681.32 657.17,-674.64"/>
</g>
<!-- rr -->
<g id="node10" class="node">
<title>rr</title>
<ellipse fill="none" stroke="black" cx="1118" cy="-306" rx="27" ry="18"/>
<text text-anchor="middle" x="1118" y="-300.95" font-family="Times,serif" font-size="14.00">rr</text>
</g>
<!-- vm -->
<g id="node11" class="node">
<title>vm</title>
<ellipse fill="none" stroke="black" cx="1118" cy="-234" rx="27" ry="18"/>
<text text-anchor="middle" x="1118" y="-228.95" font-family="Times,serif" font-size="14.00">vm</text>
</g>
<!-- rr&#45;&gt;vm -->
<g id="edge8" class="edge">
<title>rr&#45;&gt;vm</title>
<path fill="none" stroke="black" d="M1118,-287.7C1118,-280.41 1118,-271.73 1118,-263.54"/>
<polygon fill="black" stroke="black" points="1121.5,-263.62 1118,-253.62 1114.5,-263.62 1121.5,-263.62"/>
</g>
<!-- gp -->
<g id="node12" class="node">
<title>gp</title>
<ellipse fill="none" stroke="black" cx="1215" cy="-810" rx="27" ry="18"/>
<text text-anchor="middle" x="1215" y="-804.95" font-family="Times,serif" font-size="14.00">gp</text>
</g>
<!-- rr&#45;&gt;gp -->
<g id="edge9" class="edge">
<title>rr&#45;&gt;gp</title>
<path fill="none" stroke="black" d="M1110.89,-323.7C1100.4,-349.89 1082,-402.46 1082,-449 1082,-667 1082,-667 1082,-667 1082,-726.22 1144.39,-770.93 1183.7,-793.23"/>
<polygon fill="black" stroke="black" points="1181.85,-796.2 1192.3,-797.94 1185.21,-790.06 1181.85,-796.2"/>
</g>
<!-- bf -->
<g id="node51" class="node">
<title>bf</title>
<ellipse fill="none" stroke="black" cx="1327" cy="-162" rx="27" ry="18"/>
<text text-anchor="middle" x="1327" y="-156.95" font-family="Times,serif" font-size="14.00">bf</text>
</g>
<!-- vm&#45;&gt;bf -->
<g id="edge62" class="edge">
<title>vm&#45;&gt;bf</title>
<path fill="none" stroke="black" d="M1141.97,-224.97C1178.98,-212.57 1250.18,-188.73 1292.65,-174.5"/>
<polygon fill="black" stroke="black" points="1293.5,-177.91 1301.87,-171.42 1291.28,-171.27 1293.5,-177.91"/>
</g>
<!-- gp&#45;&gt;vm -->
<g id="edge10" class="edge">
<title>gp&#45;&gt;vm</title>
<path fill="none" stroke="black" d="M1189.94,-802.6C1164.2,-795 1124.16,-780.21 1097,-756 1062.63,-725.37 1044,-713.04 1044,-667 1044,-667 1044,-667 1044,-377 1044,-331 1074.92,-285.13 1096.79,-258.45"/>
<polygon fill="black" stroke="black" points="1099.31,-260.89 1103.1,-251 1093.97,-256.36 1099.31,-260.89"/>
</g>
<!-- cb -->
<g id="node13" class="node">
<title>cb</title>
<ellipse fill="none" stroke="black" cx="1475" cy="-738" rx="27" ry="18"/>
<text text-anchor="middle" x="1475" y="-732.95" font-family="Times,serif" font-size="14.00">cb</text>
</g>
<!-- gp&#45;&gt;cb -->
<g id="edge11" class="edge">
<title>gp&#45;&gt;cb</title>
<path fill="none" stroke="black" d="M1240.99,-804.08C1282.37,-795.93 1365.57,-778.32 1434,-756 1436.76,-755.1 1439.59,-754.1 1442.41,-753.04"/>
<polygon fill="black" stroke="black" points="1443.69,-756.3 1451.7,-749.37 1441.11,-749.79 1443.69,-756.3"/>
</g>
<!-- bd -->
<g id="node14" class="node">
<title>bd</title>
<ellipse fill="none" stroke="black" cx="1289" cy="-666" rx="27" ry="18"/>
<text text-anchor="middle" x="1289" y="-660.95" font-family="Times,serif" font-size="14.00">bd</text>
</g>
<!-- gp&#45;&gt;bd -->
<g id="edge12" class="edge">
<title>gp&#45;&gt;bd</title>
<path fill="none" stroke="black" d="M1225.65,-793.07C1232.39,-782.71 1241.11,-768.79 1248,-756 1258.91,-735.76 1269.73,-712.08 1277.51,-694.24"/>
<polygon fill="black" stroke="black" points="1280.71,-695.66 1281.45,-685.1 1274.28,-692.89 1280.71,-695.66"/>
</g>
<!-- qm -->
<g id="node15" class="node">
<title>qm</title>
<ellipse fill="none" stroke="black" cx="1137" cy="-378" rx="27" ry="18"/>
<text text-anchor="middle" x="1137" y="-372.95" font-family="Times,serif" font-size="14.00">qm</text>
</g>
<!-- gp&#45;&gt;qm -->
<g id="edge13" class="edge">
<title>gp&#45;&gt;qm</title>
<path fill="none" stroke="black" d="M1198.02,-795.7C1170.69,-772.67 1120,-722.47 1120,-667 1120,-667 1120,-667 1120,-521 1120,-481.24 1126.65,-435.67 1131.63,-407.1"/>
<polygon fill="black" stroke="black" points="1135.04,-407.92 1133.37,-397.46 1128.15,-406.68 1135.04,-407.92"/>
</g>
<!-- xf -->
<g id="node16" class="node">
<title>xf</title>
<ellipse fill="none" stroke="black" cx="989" cy="-738" rx="27" ry="18"/>
<text text-anchor="middle" x="989" y="-732.95" font-family="Times,serif" font-size="14.00">xf</text>
</g>
<!-- gp&#45;&gt;xf -->
<g id="edge14" class="edge">
<title>gp&#45;&gt;xf</title>
<path fill="none" stroke="black" d="M1189.88,-802.78C1154.03,-793.67 1086.3,-775.67 1030,-756 1027.26,-755.04 1024.44,-754 1021.63,-752.92"/>
<polygon fill="black" stroke="black" points="1022.94,-749.67 1012.36,-749.21 1020.34,-756.17 1022.94,-749.67"/>
</g>
<!-- pk -->
<g id="node17" class="node">
<title>pk</title>
<ellipse fill="none" stroke="black" cx="1215" cy="-882" rx="27" ry="18"/>
<text text-anchor="middle" x="1215" y="-876.95" font-family="Times,serif" font-size="14.00">pk</text>
</g>
<!-- gp&#45;&gt;pk -->
<g id="edge15" class="edge">
<title>gp&#45;&gt;pk</title>
<path fill="none" stroke="black" d="M1220.86,-827.79C1221.66,-835.25 1221.92,-844.24 1221.64,-852.69"/>
<polygon fill="black" stroke="black" points="1218.16,-852.33 1220.98,-862.54 1225.14,-852.8 1218.16,-852.33"/>
</g>
<!-- cb&#45;&gt;bd -->
<g id="edge50" class="edge">
<title>cb&#45;&gt;bd</title>
<path fill="none" stroke="black" d="M1451.82,-728.28C1419.29,-716.03 1359.91,-693.68 1322.55,-679.63"/>
<polygon fill="black" stroke="black" points="1324.19,-676.5 1313.6,-676.26 1321.72,-683.05 1324.19,-676.5"/>
</g>
<!-- dt -->
<g id="node25" class="node">
<title>dt</title>
<ellipse fill="none" stroke="black" cx="1251" cy="-594" rx="27" ry="18"/>
<text text-anchor="middle" x="1251" y="-588.95" font-family="Times,serif" font-size="14.00">dt</text>
</g>
<!-- bd&#45;&gt;dt -->
<g id="edge23" class="edge">
<title>bd&#45;&gt;dt</title>
<path fill="none" stroke="black" d="M1280.19,-648.76C1275.73,-640.55 1270.2,-630.37 1265.16,-621.09"/>
<polygon fill="black" stroke="black" points="1268.33,-619.6 1260.49,-612.48 1262.18,-622.94 1268.33,-619.6"/>
</g>
<!-- qm&#45;&gt;rr -->
<g id="edge88" class="edge">
<title>qm&#45;&gt;rr</title>
<path fill="none" stroke="black" d="M1132.4,-360.05C1130.35,-352.49 1127.87,-343.37 1125.56,-334.85"/>
<polygon fill="black" stroke="black" points="1128.95,-333.98 1122.95,-325.25 1122.2,-335.82 1128.95,-333.98"/>
</g>
<!-- xf&#45;&gt;xn -->
<g id="edge104" class="edge">
<title>xf&#45;&gt;xn</title>
<path fill="none" stroke="black" d="M980.65,-720.76C976.42,-712.55 971.19,-702.37 966.42,-693.09"/>
<polygon fill="black" stroke="black" points="969.68,-691.79 962,-684.49 963.46,-694.99 969.68,-691.79"/>
</g>
<!-- pk&#45;&gt;gp -->
<g id="edge70" class="edge">
<title>pk&#45;&gt;gp</title>
<path fill="none" stroke="black" d="M1209.12,-864.05C1208.33,-856.57 1208.08,-847.58 1208.37,-839.14"/>
<polygon fill="black" stroke="black" points="1211.85,-839.51 1209.04,-829.3 1204.87,-839.04 1211.85,-839.51"/>
</g>
<!-- pk&#45;&gt;cb -->
<g id="edge71" class="edge">
<title>pk&#45;&gt;cb</title>
<path fill="none" stroke="black" d="M1235.4,-869.86C1280.97,-844.97 1391.2,-784.77 1444.77,-755.51"/>
<polygon fill="black" stroke="black" points="1446.27,-758.68 1453.36,-750.82 1442.91,-752.54 1446.27,-758.68"/>
</g>
<!-- hm&#45;&gt;ql -->
<g id="edge16" class="edge">
<title>hm&#45;&gt;ql</title>
<path fill="none" stroke="black" d="M159,-359.7C159,-352.41 159,-343.73 159,-335.54"/>
<polygon fill="black" stroke="black" points="162.5,-335.62 159,-325.62 155.5,-335.62 162.5,-335.62"/>
</g>
<!-- ql&#45;&gt;hs -->
<g id="edge96" class="edge">
<title>ql&#45;&gt;hs</title>
<path fill="none" stroke="black" d="M180.11,-294.52C203.58,-282.87 241.71,-263.94 268.67,-250.56"/>
<polygon fill="black" stroke="black" points="269.99,-253.81 277.39,-246.22 266.88,-247.54 269.99,-253.81"/>
</g>
<!-- cf -->
<g id="node20" class="node">
<title>cf</title>
<ellipse fill="none" stroke="black" cx="488" cy="-306" rx="27" ry="18"/>
<text text-anchor="middle" x="488" y="-300.95" font-family="Times,serif" font-size="14.00">cf</text>
</g>
<!-- cf&#45;&gt;fb -->
<g id="edge18" class="edge">
<title>cf&#45;&gt;fb</title>
<path fill="none" stroke="black" d="M512.96,-313.2C564.1,-327.56 676,-368.22 676,-449 676,-595 676,-595 676,-595 676,-663.78 649.89,-741.43 634.32,-781.62"/>
<polygon fill="black" stroke="black" points="631.14,-780.16 630.71,-790.75 637.64,-782.74 631.14,-780.16"/>
</g>
<!-- dx -->
<g id="node21" class="node">
<title>dx</title>
<ellipse fill="none" stroke="black" cx="450" cy="-234" rx="27" ry="18"/>
<text text-anchor="middle" x="450" y="-228.95" font-family="Times,serif" font-size="14.00">dx</text>
</g>
<!-- cf&#45;&gt;dx -->
<g id="edge17" class="edge">
<title>cf&#45;&gt;dx</title>
<path fill="none" stroke="black" d="M479.19,-288.76C474.73,-280.55 469.2,-270.37 464.16,-261.09"/>
<polygon fill="black" stroke="black" points="467.33,-259.6 459.49,-252.48 461.18,-262.94 467.33,-259.6"/>
</g>
<!-- dx&#45;&gt;fb -->
<g id="edge31" class="edge">
<title>dx&#45;&gt;fb</title>
<path fill="none" stroke="black" d="M442.89,-251.7C432.4,-277.89 414,-330.46 414,-377 414,-667 414,-667 414,-667 414,-712.15 428.28,-727.13 463,-756 498.17,-785.25 550.05,-798.54 585.12,-804.45"/>
<polygon fill="black" stroke="black" points="584.4,-807.89 594.82,-805.96 585.48,-800.97 584.4,-807.89"/>
</g>
<!-- jm -->
<g id="node33" class="node">
<title>jm</title>
<ellipse fill="none" stroke="black" cx="450" cy="-162" rx="27" ry="18"/>
<text text-anchor="middle" x="450" y="-156.95" font-family="Times,serif" font-size="14.00">jm</text>
</g>
<!-- dx&#45;&gt;jm -->
<g id="edge32" class="edge">
<title>dx&#45;&gt;jm</title>
<path fill="none" stroke="black" d="M450,-215.7C450,-208.41 450,-199.73 450,-191.54"/>
<polygon fill="black" stroke="black" points="453.5,-191.62 450,-181.62 446.5,-191.62 453.5,-191.62"/>
</g>
<!-- hv -->
<g id="node22" class="node">
<title>hv</title>
<ellipse fill="none" stroke="black" cx="714" cy="-90" rx="27" ry="18"/>
<text text-anchor="middle" x="714" y="-84.95" font-family="Times,serif" font-size="14.00">hv</text>
</g>
<!-- hv&#45;&gt;fb -->
<g id="edge21" class="edge">
<title>hv&#45;&gt;fb</title>
<path fill="none" stroke="black" d="M714,-108.49C714,-135.29 714,-188.13 714,-233 714,-595 714,-595 714,-595 714,-670.06 697.44,-689.31 663,-756 657.72,-766.23 650.47,-776.54 643.59,-785.32"/>
<polygon fill="black" stroke="black" points="640.95,-783.03 637.34,-792.99 646.37,-787.45 640.95,-783.03"/>
</g>
<!-- kg -->
<g id="node23" class="node">
<title>kg</title>
<ellipse fill="none" stroke="black" cx="752" cy="-18" rx="27" ry="18"/>
<text text-anchor="middle" x="752" y="-12.95" font-family="Times,serif" font-size="14.00">kg</text>
</g>
<!-- hv&#45;&gt;kg -->
<g id="edge20" class="edge">
<title>hv&#45;&gt;kg</title>
<path fill="none" stroke="black" d="M722.81,-72.76C727.27,-64.55 732.8,-54.37 737.84,-45.09"/>
<polygon fill="black" stroke="black" points="740.82,-46.94 742.51,-36.48 734.67,-43.6 740.82,-46.94"/>
</g>
<!-- kg&#45;&gt;fb -->
<g id="edge53" class="edge">
<title>kg&#45;&gt;fb</title>
<path fill="none" stroke="black" d="M759.51,-35.66C770.58,-61.8 790,-114.3 790,-161 790,-667 790,-667 790,-667 790,-707.45 797.63,-725.56 771,-756 743.27,-787.7 695.2,-800.44 661.38,-805.56"/>
<polygon fill="black" stroke="black" points="661.02,-802.08 651.57,-806.87 661.95,-809.02 661.02,-802.08"/>
</g>
<!-- hs&#45;&gt;jv -->
<g id="edge22" class="edge">
<title>hs&#45;&gt;jv</title>
<path fill="none" stroke="black" d="M307.51,-251.66C318.58,-277.8 338,-330.3 338,-377 338,-739 338,-739 338,-739 338,-863.39 305.16,-1009.3 290.23,-1069.2"/>
<polygon fill="black" stroke="black" points="286.93,-1067.98 287.87,-1078.54 293.72,-1069.7 286.93,-1067.98"/>
</g>
<!-- dt&#45;&gt;gp -->
<g id="edge102" class="edge">
<title>dt&#45;&gt;gp</title>
<path fill="none" stroke="black" d="M1248.1,-612.23C1241.91,-649.01 1227.36,-735.5 1219.78,-780.57"/>
<polygon fill="black" stroke="black" points="1216.34,-779.91 1218.14,-790.36 1223.25,-781.08 1216.34,-779.91"/>
</g>
<!-- xv -->
<g id="node26" class="node">
<title>xv</title>
<ellipse fill="none" stroke="black" cx="1213" cy="-522" rx="27" ry="18"/>
<text text-anchor="middle" x="1213" y="-516.95" font-family="Times,serif" font-size="14.00">xv</text>
</g>
<!-- dt&#45;&gt;xv -->
<g id="edge101" class="edge">
<title>dt&#45;&gt;xv</title>
<path fill="none" stroke="black" d="M1242.19,-576.76C1237.73,-568.55 1232.2,-558.37 1227.16,-549.09"/>
<polygon fill="black" stroke="black" points="1230.33,-547.6 1222.49,-540.48 1224.18,-550.94 1230.33,-547.6"/>
</g>
<!-- xv&#45;&gt;gp -->
<g id="edge25" class="edge">
<title>xv&#45;&gt;gp</title>
<path fill="none" stroke="black" d="M1213.12,-540.23C1213.45,-587.74 1214.38,-720.97 1214.8,-780.1"/>
<polygon fill="black" stroke="black" points="1211.3,-780.05 1214.87,-790.03 1218.3,-780 1211.3,-780.05"/>
</g>
<!-- mv -->
<g id="node27" class="node">
<title>mv</title>
<ellipse fill="none" stroke="black" cx="1175" cy="-450" rx="27" ry="18"/>
<text text-anchor="middle" x="1175" y="-444.95" font-family="Times,serif" font-size="14.00">mv</text>
</g>
<!-- xv&#45;&gt;mv -->
<g id="edge24" class="edge">
<title>xv&#45;&gt;mv</title>
<path fill="none" stroke="black" d="M1204.19,-504.76C1199.73,-496.55 1194.2,-486.37 1189.16,-477.09"/>
<polygon fill="black" stroke="black" points="1192.33,-475.6 1184.49,-468.48 1186.18,-478.94 1192.33,-475.6"/>
</g>
<!-- mv&#45;&gt;gp -->
<g id="edge39" class="edge">
<title>mv&#45;&gt;gp</title>
<path fill="none" stroke="black" d="M1171.64,-467.97C1166.69,-494.52 1158,-547.56 1158,-593 1158,-667 1158,-667 1158,-667 1158,-710.34 1181.15,-756.12 1197.95,-783.62"/>
<polygon fill="black" stroke="black" points="1194.9,-785.35 1203.2,-791.94 1200.82,-781.62 1194.9,-785.35"/>
</g>
<!-- mv&#45;&gt;qm -->
<g id="edge40" class="edge">
<title>mv&#45;&gt;qm</title>
<path fill="none" stroke="black" d="M1166.19,-432.76C1161.73,-424.55 1156.2,-414.37 1151.16,-405.09"/>
<polygon fill="black" stroke="black" points="1154.33,-403.6 1146.49,-396.48 1148.18,-406.94 1154.33,-403.6"/>
</g>
<!-- js -->
<g id="node28" class="node">
<title>js</title>
<ellipse fill="none" stroke="black" cx="1809" cy="-450" rx="27" ry="18"/>
<text text-anchor="middle" x="1809" y="-444.95" font-family="Times,serif" font-size="14.00">js</text>
</g>
<!-- zb -->
<g id="node29" class="node">
<title>zb</title>
<ellipse fill="none" stroke="black" cx="1771" cy="-378" rx="27" ry="18"/>
<text text-anchor="middle" x="1771" y="-372.95" font-family="Times,serif" font-size="14.00">zb</text>
</g>
<!-- js&#45;&gt;zb -->
<g id="edge26" class="edge">
<title>js&#45;&gt;zb</title>
<path fill="none" stroke="black" d="M1800.19,-432.76C1795.73,-424.55 1790.2,-414.37 1785.16,-405.09"/>
<polygon fill="black" stroke="black" points="1788.33,-403.6 1780.49,-396.48 1782.18,-406.94 1788.33,-403.6"/>
</g>
<!-- jl -->
<g id="node30" class="node">
<title>jl</title>
<ellipse fill="none" stroke="black" cx="1773" cy="-810" rx="27" ry="18"/>
<text text-anchor="middle" x="1773" y="-804.95" font-family="Times,serif" font-size="14.00">jl</text>
</g>
<!-- js&#45;&gt;jl -->
<g id="edge27" class="edge">
<title>js&#45;&gt;jl</title>
<path fill="none" stroke="black" d="M1805.64,-467.97C1800.69,-494.52 1792,-547.56 1792,-593 1792,-667 1792,-667 1792,-667 1792,-706.83 1784.57,-752.39 1779,-780.93"/>
<polygon fill="black" stroke="black" points="1775.6,-780.07 1777.05,-790.57 1782.46,-781.46 1775.6,-780.07"/>
</g>
<!-- lr -->
<g id="node42" class="node">
<title>lr</title>
<ellipse fill="none" stroke="black" cx="1733" cy="-306" rx="27" ry="18"/>
<text text-anchor="middle" x="1733" y="-300.95" font-family="Times,serif" font-size="14.00">lr</text>
</g>
<!-- zb&#45;&gt;lr -->
<g id="edge98" class="edge">
<title>zb&#45;&gt;lr</title>
<path fill="none" stroke="black" d="M1762.19,-360.76C1757.73,-352.55 1752.2,-342.37 1747.16,-333.09"/>
<polygon fill="black" stroke="black" points="1750.33,-331.6 1742.49,-324.48 1744.18,-334.94 1750.33,-331.6"/>
</g>
<!-- jl&#45;&gt;zb -->
<g id="edge46" class="edge">
<title>jl&#45;&gt;zb</title>
<path fill="none" stroke="black" d="M1769.25,-792.05C1763.71,-765.52 1754,-712.52 1754,-667 1754,-667 1754,-667 1754,-521 1754,-481.24 1760.65,-435.67 1765.63,-407.1"/>
<polygon fill="black" stroke="black" points="1769.04,-407.92 1767.37,-397.46 1762.15,-406.68 1769.04,-407.92"/>
</g>
<!-- ms -->
<g id="node38" class="node">
<title>ms</title>
<ellipse fill="none" stroke="black" cx="1885" cy="-594" rx="27" ry="18"/>
<text text-anchor="middle" x="1885" y="-588.95" font-family="Times,serif" font-size="14.00">ms</text>
</g>
<!-- jl&#45;&gt;ms -->
<g id="edge43" class="edge">
<title>jl&#45;&gt;ms</title>
<path fill="none" stroke="black" d="M1794.15,-798.39C1810.18,-789.28 1831.52,-774.67 1844,-756 1871.28,-715.21 1880.41,-657.54 1883.46,-623.44"/>
<polygon fill="black" stroke="black" points="1886.95,-623.76 1884.22,-613.52 1879.97,-623.22 1886.95,-623.76"/>
</g>
<!-- km -->
<g id="node39" class="node">
<title>km</title>
<ellipse fill="none" stroke="black" cx="1773" cy="-882" rx="27" ry="18"/>
<text text-anchor="middle" x="1773" y="-876.95" font-family="Times,serif" font-size="14.00">km</text>
</g>
<!-- jl&#45;&gt;km -->
<g id="edge41" class="edge">
<title>jl&#45;&gt;km</title>
<path fill="none" stroke="black" d="M1778.86,-827.79C1779.66,-835.25 1779.92,-844.24 1779.64,-852.69"/>
<polygon fill="black" stroke="black" points="1776.16,-852.33 1778.98,-862.54 1783.14,-852.8 1776.16,-852.33"/>
</g>
<!-- lm -->
<g id="node40" class="node">
<title>lm</title>
<ellipse fill="none" stroke="black" cx="1961" cy="-738" rx="27" ry="18"/>
<text text-anchor="middle" x="1961" y="-732.95" font-family="Times,serif" font-size="14.00">lm</text>
</g>
<!-- jl&#45;&gt;lm -->
<g id="edge42" class="edge">
<title>jl&#45;&gt;lm</title>
<path fill="none" stroke="black" d="M1796.81,-800.8C1825.98,-790.67 1876.87,-772.71 1920,-756 1922.64,-754.98 1925.37,-753.9 1928.1,-752.8"/>
<polygon fill="black" stroke="black" points="1929.18,-756.14 1937.12,-749.12 1926.54,-749.66 1929.18,-756.14"/>
</g>
<!-- mp -->
<g id="node41" class="node">
<title>mp</title>
<ellipse fill="none" stroke="black" cx="1547" cy="-738" rx="27" ry="18"/>
<text text-anchor="middle" x="1547" y="-732.95" font-family="Times,serif" font-size="14.00">mp</text>
</g>
<!-- jl&#45;&gt;mp -->
<g id="edge44" class="edge">
<title>jl&#45;&gt;mp</title>
<path fill="none" stroke="black" d="M1747.88,-802.78C1712.03,-793.67 1644.3,-775.67 1588,-756 1585.26,-755.04 1582.44,-754 1579.63,-752.92"/>
<polygon fill="black" stroke="black" points="1580.94,-749.67 1570.36,-749.21 1578.34,-756.17 1580.94,-749.67"/>
</g>
<!-- jl&#45;&gt;lr -->
<g id="edge45" class="edge">
<title>jl&#45;&gt;lr</title>
<path fill="none" stroke="black" d="M1762.01,-793.22C1745.45,-767.85 1716,-715.88 1716,-667 1716,-667 1716,-667 1716,-449 1716,-409.24 1722.65,-363.67 1727.63,-335.1"/>
<polygon fill="black" stroke="black" points="1731.04,-335.92 1729.37,-325.46 1724.15,-334.68 1731.04,-335.92"/>
</g>
<!-- bg -->
<g id="node43" class="node">
<title>bg</title>
<ellipse fill="none" stroke="black" cx="1847" cy="-522" rx="27" ry="18"/>
<text text-anchor="middle" x="1847" y="-516.95" font-family="Times,serif" font-size="14.00">bg</text>
</g>
<!-- jl&#45;&gt;bg -->
<g id="edge47" class="edge">
<title>jl&#45;&gt;bg</title>
<path fill="none" stroke="black" d="M1784.8,-793.6C1792.01,-783.45 1800.81,-769.56 1806,-756 1832.91,-685.7 1842.3,-596.64 1845.47,-551.71"/>
<polygon fill="black" stroke="black" points="1848.96,-551.98 1846.11,-541.77 1841.97,-551.53 1848.96,-551.98"/>
</g>
<!-- bk&#45;&gt;jn -->
<g id="edge87" class="edge">
<title>bk&#45;&gt;jn</title>
<path fill="none" stroke="black" d="M216.95,-936.33C224.47,-918.25 233.58,-888.66 226,-864 222.82,-853.65 216.85,-843.51 210.67,-834.91"/>
<polygon fill="black" stroke="black" points="213.55,-832.91 204.67,-827.13 208.01,-837.19 213.55,-832.91"/>
</g>
<!-- dg -->
<g id="node48" class="node">
<title>dg</title>
<ellipse fill="none" stroke="black" cx="190" cy="-882" rx="27" ry="18"/>
<text text-anchor="middle" x="190" y="-876.95" font-family="Times,serif" font-size="14.00">dg</text>
</g>
<!-- bk&#45;&gt;dg -->
<g id="edge86" class="edge">
<title>bk&#45;&gt;dg</title>
<path fill="none" stroke="black" d="M204.4,-936.05C202.35,-928.49 199.87,-919.37 197.56,-910.85"/>
<polygon fill="black" stroke="black" points="200.95,-909.98 194.95,-901.25 194.2,-911.82 200.95,-909.98"/>
</g>
<!-- lp&#45;&gt;hm -->
<g id="edge30" class="edge">
<title>lp&#45;&gt;hm</title>
<path fill="none" stroke="black" d="M122.67,-433.12C128.37,-424.61 135.54,-413.94 142,-404.32"/>
<polygon fill="black" stroke="black" points="144.86,-406.33 147.53,-396.08 139.05,-402.43 144.86,-406.33"/>
</g>
<!-- jm&#45;&gt;fb -->
<g id="edge95" class="edge">
<title>jm&#45;&gt;fb</title>
<path fill="none" stroke="black" d="M436.08,-177.84C414.65,-202.32 376,-253.57 376,-305 376,-667 376,-667 376,-667 376,-711.73 387.99,-728.15 423,-756 469.99,-793.38 540.9,-804.54 584.45,-807.79"/>
<polygon fill="black" stroke="black" points="583.98,-811.27 594.18,-808.4 584.42,-804.28 583.98,-811.27"/>
</g>
<!-- jm&#45;&gt;hv -->
<g id="edge94" class="edge">
<title>jm&#45;&gt;hv</title>
<path fill="none" stroke="black" d="M474.84,-154.41C521.81,-141.96 623.82,-114.91 678.2,-100.49"/>
<polygon fill="black" stroke="black" points="678.81,-103.95 687.57,-98.01 677.01,-97.19 678.81,-103.95"/>
</g>
<!-- ss&#45;&gt;lp -->
<g id="edge33" class="edge">
<title>ss&#45;&gt;lp</title>
<path fill="none" stroke="black" d="M112,-503.7C112,-496.41 112,-487.73 112,-479.54"/>
<polygon fill="black" stroke="black" points="115.5,-479.62 112,-469.62 108.5,-479.62 115.5,-479.62"/>
</g>
<!-- hn&#45;&gt;xn -->
<g id="edge34" class="edge">
<title>hn&#45;&gt;xn</title>
<path fill="none" stroke="black" d="M759.16,-729.24C797.81,-716.83 873.71,-692.46 918.2,-678.17"/>
<polygon fill="black" stroke="black" points="919.17,-681.54 927.62,-675.15 917.03,-674.87 919.17,-681.54"/>
</g>
<!-- rx -->
<g id="node59" class="node">
<title>rx</title>
<ellipse fill="none" stroke="black" cx="953" cy="-594" rx="27" ry="18"/>
<text text-anchor="middle" x="953" y="-588.95" font-family="Times,serif" font-size="14.00">rx</text>
</g>
<!-- xn&#45;&gt;rx -->
<g id="edge108" class="edge">
<title>xn&#45;&gt;rx</title>
<path fill="none" stroke="black" d="M953,-647.7C953,-640.41 953,-631.73 953,-623.54"/>
<polygon fill="black" stroke="black" points="956.5,-623.62 953,-613.62 949.5,-623.62 956.5,-623.62"/>
</g>
<!-- bh -->
<g id="node37" class="node">
<title>bh</title>
<ellipse fill="none" stroke="black" cx="1923" cy="-666" rx="27" ry="18"/>
<text text-anchor="middle" x="1923" y="-660.95" font-family="Times,serif" font-size="14.00">bh</text>
</g>
<!-- bh&#45;&gt;jl -->
<g id="edge35" class="edge">
<title>bh&#45;&gt;jl</title>
<path fill="none" stroke="black" d="M1918.89,-684.08C1913.41,-703.63 1902,-735.58 1882,-756 1861.76,-776.67 1831.81,-790.43 1808.43,-798.73"/>
<polygon fill="black" stroke="black" points="1807.36,-795.4 1798.99,-801.9 1809.58,-802.04 1807.36,-795.4"/>
</g>
<!-- bh&#45;&gt;ms -->
<g id="edge36" class="edge">
<title>bh&#45;&gt;ms</title>
<path fill="none" stroke="black" d="M1914.19,-648.76C1909.73,-640.55 1904.2,-630.37 1899.16,-621.09"/>
<polygon fill="black" stroke="black" points="1902.33,-619.6 1894.49,-612.48 1896.18,-622.94 1902.33,-619.6"/>
</g>
<!-- ms&#45;&gt;bg -->
<g id="edge97" class="edge">
<title>ms&#45;&gt;bg</title>
<path fill="none" stroke="black" d="M1876.19,-576.76C1871.73,-568.55 1866.2,-558.37 1861.16,-549.09"/>
<polygon fill="black" stroke="black" points="1864.33,-547.6 1856.49,-540.48 1858.18,-550.94 1864.33,-547.6"/>
</g>
<!-- km&#45;&gt;jl -->
<g id="edge37" class="edge">
<title>km&#45;&gt;jl</title>
<path fill="none" stroke="black" d="M1767.12,-864.05C1766.33,-856.57 1766.08,-847.58 1766.37,-839.14"/>
<polygon fill="black" stroke="black" points="1769.85,-839.51 1767.04,-829.3 1762.87,-839.04 1769.85,-839.51"/>
</g>
<!-- km&#45;&gt;lm -->
<g id="edge38" class="edge">
<title>km&#45;&gt;lm</title>
<path fill="none" stroke="black" d="M1790.35,-867.9C1823.37,-842.96 1895.42,-788.53 1934.51,-759.01"/>
<polygon fill="black" stroke="black" points="1936.61,-761.81 1942.48,-752.99 1932.4,-756.22 1936.61,-761.81"/>
</g>
<!-- lm&#45;&gt;bh -->
<g id="edge103" class="edge">
<title>lm&#45;&gt;bh</title>
<path fill="none" stroke="black" d="M1952.19,-720.76C1947.73,-712.55 1942.2,-702.37 1937.16,-693.09"/>
<polygon fill="black" stroke="black" points="1940.33,-691.6 1932.49,-684.48 1934.18,-694.94 1940.33,-691.6"/>
</g>
<!-- mp&#45;&gt;xn -->
<g id="edge65" class="edge">
<title>mp&#45;&gt;xn</title>
<path fill="none" stroke="black" d="M1526.53,-725.84C1521.57,-723.56 1516.2,-721.43 1511,-720 1412.64,-693 1101.17,-674.68 991.59,-668.93"/>
<polygon fill="black" stroke="black" points="991.82,-665.44 981.65,-668.41 991.46,-672.43 991.82,-665.44"/>
</g>
<!-- pt -->
<g id="node44" class="node">
<title>pt</title>
<ellipse fill="none" stroke="black" cx="1695" cy="-234" rx="27" ry="18"/>
<text text-anchor="middle" x="1695" y="-228.95" font-family="Times,serif" font-size="14.00">pt</text>
</g>
<!-- lr&#45;&gt;pt -->
<g id="edge61" class="edge">
<title>lr&#45;&gt;pt</title>
<path fill="none" stroke="black" d="M1724.19,-288.76C1719.73,-280.55 1714.2,-270.37 1709.16,-261.09"/>
<polygon fill="black" stroke="black" points="1712.33,-259.6 1704.49,-252.48 1706.18,-262.94 1712.33,-259.6"/>
</g>
<!-- bg&#45;&gt;js -->
<g id="edge81" class="edge">
<title>bg&#45;&gt;js</title>
<path fill="none" stroke="black" d="M1838.19,-504.76C1833.73,-496.55 1828.2,-486.37 1823.16,-477.09"/>
<polygon fill="black" stroke="black" points="1826.33,-475.6 1818.49,-468.48 1820.18,-478.94 1826.33,-475.6"/>
</g>
<!-- pt&#45;&gt;jl -->
<g id="edge49" class="edge">
<title>pt&#45;&gt;jl</title>
<path fill="none" stroke="black" d="M1691.64,-251.97C1686.69,-278.52 1678,-331.56 1678,-377 1678,-667 1678,-667 1678,-667 1678,-717.05 1719.27,-762.81 1747.41,-788.2"/>
<polygon fill="black" stroke="black" points="1745.04,-790.77 1754.88,-794.71 1749.64,-785.5 1745.04,-790.77"/>
</g>
<!-- jt -->
<g id="node45" class="node">
<title>jt</title>
<ellipse fill="none" stroke="black" cx="1676" cy="-162" rx="27" ry="18"/>
<text text-anchor="middle" x="1676" y="-156.95" font-family="Times,serif" font-size="14.00">jt</text>
</g>
<!-- pt&#45;&gt;jt -->
<g id="edge48" class="edge">
<title>pt&#45;&gt;jt</title>
<path fill="none" stroke="black" d="M1690.4,-216.05C1688.35,-208.49 1685.87,-199.37 1683.56,-190.85"/>
<polygon fill="black" stroke="black" points="1686.95,-189.98 1680.95,-181.25 1680.2,-191.82 1686.95,-189.98"/>
</g>
<!-- jt&#45;&gt;jl -->
<g id="edge73" class="edge">
<title>jt&#45;&gt;jl</title>
<path fill="none" stroke="black" d="M1668.89,-179.7C1658.4,-205.89 1640,-258.46 1640,-305 1640,-667 1640,-667 1640,-667 1640,-726.22 1702.39,-770.93 1741.7,-793.23"/>
<polygon fill="black" stroke="black" points="1739.85,-796.2 1750.3,-797.94 1743.21,-790.06 1739.85,-796.2"/>
</g>
<!-- hx -->
<g id="node52" class="node">
<title>hx</title>
<ellipse fill="none" stroke="black" cx="1676" cy="-90" rx="27" ry="18"/>
<text text-anchor="middle" x="1676" y="-84.95" font-family="Times,serif" font-size="14.00">hx</text>
</g>
<!-- jt&#45;&gt;hx -->
<g id="edge72" class="edge">
<title>jt&#45;&gt;hx</title>
<path fill="none" stroke="black" d="M1676,-143.7C1676,-136.41 1676,-127.73 1676,-119.54"/>
<polygon fill="black" stroke="black" points="1679.5,-119.62 1676,-109.62 1672.5,-119.62 1679.5,-119.62"/>
</g>
<!-- xt&#45;&gt;jn -->
<g id="edge51" class="edge">
<title>xt&#45;&gt;jn</title>
<path fill="none" stroke="black" d="M237.69,-755.76C231.43,-764.99 222.51,-776.55 213.99,-786.55"/>
<polygon fill="black" stroke="black" points="211.37,-784.23 207.37,-794.04 216.62,-788.86 211.37,-784.23"/>
</g>
<!-- jf -->
<g id="node47" class="node">
<title>jf</title>
<ellipse fill="none" stroke="black" cx="169" cy="-666" rx="27" ry="18"/>
<text text-anchor="middle" x="169" y="-660.95" font-family="Times,serif" font-size="14.00">jf</text>
</g>
<!-- xt&#45;&gt;jf -->
<g id="edge52" class="edge">
<title>xt&#45;&gt;jf</title>
<path fill="none" stroke="black" d="M229.62,-722.83C219.01,-713.06 204.7,-699.88 192.65,-688.78"/>
<polygon fill="black" stroke="black" points="195.2,-686.37 185.47,-682.17 190.45,-691.52 195.2,-686.37"/>
</g>
<!-- jf&#45;&gt;jn -->
<g id="edge92" class="edge">
<title>jf&#45;&gt;jn</title>
<path fill="none" stroke="black" d="M169.44,-684.17C170.11,-702.18 171.79,-731.25 176,-756 177.39,-764.19 179.47,-772.97 181.59,-780.97"/>
<polygon fill="black" stroke="black" points="178.2,-781.84 184.26,-790.53 184.94,-779.95 178.2,-781.84"/>
</g>
<!-- kz -->
<g id="node56" class="node">
<title>kz</title>
<ellipse fill="none" stroke="black" cx="131" cy="-594" rx="27" ry="18"/>
<text text-anchor="middle" x="131" y="-588.95" font-family="Times,serif" font-size="14.00">kz</text>
</g>
<!-- jf&#45;&gt;kz -->
<g id="edge93" class="edge">
<title>jf&#45;&gt;kz</title>
<path fill="none" stroke="black" d="M160.19,-648.76C155.73,-640.55 150.2,-630.37 145.16,-621.09"/>
<polygon fill="black" stroke="black" points="148.33,-619.6 140.49,-612.48 142.18,-622.94 148.33,-619.6"/>
</g>
<!-- dg&#45;&gt;jn -->
<g id="edge54" class="edge">
<title>dg&#45;&gt;jn</title>
<path fill="none" stroke="black" d="M190,-863.7C190,-856.41 190,-847.73 190,-839.54"/>
<polygon fill="black" stroke="black" points="193.5,-839.62 190,-829.62 186.5,-839.62 193.5,-839.62"/>
</g>
<!-- rt -->
<g id="node49" class="node">
<title>rt</title>
<ellipse fill="none" stroke="black" cx="545" cy="-522" rx="27" ry="18"/>
<text text-anchor="middle" x="545" y="-516.95" font-family="Times,serif" font-size="14.00">rt</text>
</g>
<!-- rt&#45;&gt;fb -->
<g id="edge55" class="edge">
<title>rt&#45;&gt;fb</title>
<path fill="none" stroke="black" d="M544.07,-540.18C543.39,-558.19 543.18,-587.26 547,-612 557.17,-677.89 561.39,-695.32 589,-756 593.36,-765.58 599.25,-775.46 604.91,-784.05"/>
<polygon fill="black" stroke="black" points="601.94,-785.91 610.47,-792.2 607.72,-781.97 601.94,-785.91"/>
</g>
<!-- rt&#45;&gt;hb -->
<g id="edge56" class="edge">
<title>rt&#45;&gt;hb</title>
<path fill="none" stroke="black" d="M536.19,-504.76C531.73,-496.55 526.2,-486.37 521.16,-477.09"/>
<polygon fill="black" stroke="black" points="524.33,-475.6 516.49,-468.48 518.18,-478.94 524.33,-475.6"/>
</g>
<!-- roadcaster -->
<g id="node50" class="node">
<title>roadcaster</title>
<ellipse fill="none" stroke="black" cx="919" cy="-954" rx="48.79" ry="18"/>
<text text-anchor="middle" x="919" y="-948.95" font-family="Times,serif" font-size="14.00">roadcaster</text>
</g>
<!-- roadcaster&#45;&gt;vk -->
<g id="edge60" class="edge">
<title>roadcaster&#45;&gt;vk</title>
<path fill="none" stroke="black" d="M882.84,-941.6C841.17,-928.46 773.17,-907.02 732,-894.04"/>
<polygon fill="black" stroke="black" points="733.18,-890.74 722.59,-891.07 731.08,-897.41 733.18,-890.74"/>
</g>
<!-- roadcaster&#45;&gt;pk -->
<g id="edge59" class="edge">
<title>roadcaster&#45;&gt;pk</title>
<path fill="none" stroke="black" d="M959.23,-943.49C1017.08,-929.81 1122.9,-904.78 1178.57,-891.62"/>
<polygon fill="black" stroke="black" points="1179.25,-895.05 1188.17,-889.34 1177.64,-888.24 1179.25,-895.05"/>
</g>
<!-- roadcaster&#45;&gt;km -->
<g id="edge57" class="edge">
<title>roadcaster&#45;&gt;km</title>
<path fill="none" stroke="black" d="M966.44,-949.11C1119.17,-936.59 1596.25,-897.49 1734.87,-886.13"/>
<polygon fill="black" stroke="black" points="1734.92,-889.63 1744.6,-885.33 1734.35,-882.66 1734.92,-889.63"/>
</g>
<!-- roadcaster&#45;&gt;xt -->
<g id="edge58" class="edge">
<title>roadcaster&#45;&gt;xt</title>
<path fill="none" stroke="black" d="M874.63,-946.2C822.78,-937.72 734.7,-921.67 661,-900 513.96,-856.77 345.64,-784.16 276.82,-753.43"/>
<polygon fill="black" stroke="black" points="278.59,-750.39 268.03,-749.49 275.72,-756.77 278.59,-750.39"/>
</g>
<!-- bf&#45;&gt;gp -->
<g id="edge85" class="edge">
<title>bf&#45;&gt;gp</title>
<path fill="none" stroke="black" d="M1330.36,-179.97C1335.31,-206.52 1344,-259.56 1344,-305 1344,-667 1344,-667 1344,-667 1344,-725.24 1283.81,-770.18 1245.65,-792.8"/>
<polygon fill="black" stroke="black" points="1244.26,-789.57 1237.33,-797.58 1247.74,-795.64 1244.26,-789.57"/>
</g>
<!-- fx -->
<g id="node57" class="node">
<title>fx</title>
<ellipse fill="none" stroke="black" cx="1365" cy="-90" rx="27" ry="18"/>
<text text-anchor="middle" x="1365" y="-84.95" font-family="Times,serif" font-size="14.00">fx</text>
</g>
<!-- bf&#45;&gt;fx -->
<g id="edge84" class="edge">
<title>bf&#45;&gt;fx</title>
<path fill="none" stroke="black" d="M1335.81,-144.76C1340.27,-136.55 1345.8,-126.37 1350.84,-117.09"/>
<polygon fill="black" stroke="black" points="1353.82,-118.94 1355.51,-108.48 1347.67,-115.6 1353.82,-118.94"/>
</g>
<!-- hx&#45;&gt;jl -->
<g id="edge64" class="edge">
<title>hx&#45;&gt;jl</title>
<path fill="none" stroke="black" d="M1662.08,-105.84C1640.65,-130.32 1602,-181.57 1602,-233 1602,-667 1602,-667 1602,-667 1602,-713.04 1620.63,-725.37 1655,-756 1678.55,-776.99 1711.79,-790.9 1736.99,-799.19"/>
<polygon fill="black" stroke="black" points="1735.91,-802.51 1746.5,-802.15 1737.99,-795.83 1735.91,-802.51"/>
</g>
<!-- qd -->
<g id="node53" class="node">
<title>qd</title>
<ellipse fill="none" stroke="black" cx="1846" cy="-18" rx="27" ry="18"/>
<text text-anchor="middle" x="1846" y="-12.95" font-family="Times,serif" font-size="14.00">qd</text>
</g>
<!-- hx&#45;&gt;qd -->
<g id="edge63" class="edge">
<title>hx&#45;&gt;qd</title>
<path fill="none" stroke="black" d="M1698.57,-79.7C1727.91,-67.62 1779.37,-46.44 1813.07,-32.56"/>
<polygon fill="black" stroke="black" points="1814.02,-35.95 1821.93,-28.91 1811.35,-29.48 1814.02,-35.95"/>
</g>
<!-- qd&#45;&gt;jl -->
<g id="edge107" class="edge">
<title>qd&#45;&gt;jl</title>
<path fill="none" stroke="black" d="M1870.36,-26.57C1917.36,-42.87 2016,-86.01 2016,-161 2016,-667 2016,-667 2016,-667 2016,-707.45 2025.28,-727.09 1997,-756 1971.43,-782.14 1867.97,-797.99 1811.03,-804.9"/>
<polygon fill="black" stroke="black" points="1810.66,-801.42 1801.14,-806.07 1811.48,-808.38 1810.66,-801.42"/>
</g>
<!-- pd&#45;&gt;fb -->
<g id="edge106" class="edge">
<title>pd&#45;&gt;fb</title>
<path fill="none" stroke="black" d="M480.89,-395.7C470.4,-421.89 452,-474.46 452,-521 452,-667 452,-667 452,-667 452,-713.04 470.63,-725.37 505,-756 528.55,-776.99 561.79,-790.9 586.99,-799.19"/>
<polygon fill="black" stroke="black" points="585.91,-802.51 596.5,-802.15 587.99,-795.83 585.91,-802.51"/>
</g>
<!-- pd&#45;&gt;cf -->
<g id="edge105" class="edge">
<title>pd&#45;&gt;cf</title>
<path fill="none" stroke="black" d="M488,-359.7C488,-352.41 488,-343.73 488,-335.54"/>
<polygon fill="black" stroke="black" points="491.5,-335.62 488,-325.62 484.5,-335.62 491.5,-335.62"/>
</g>
<!-- rs&#45;&gt;fb -->
<g id="edge99" class="edge">
<title>rs&#45;&gt;fb</title>
<path fill="none" stroke="black" d="M582.01,-612.19C581.29,-630.2 581.04,-659.28 585,-684 590.54,-718.57 603.21,-756.9 612.4,-781.88"/>
<polygon fill="black" stroke="black" points="609.02,-782.82 615.81,-790.94 615.57,-780.35 609.02,-782.82"/>
</g>
<!-- rs&#45;&gt;rt -->
<g id="edge100" class="edge">
<title>rs&#45;&gt;rt</title>
<path fill="none" stroke="black" d="M574.19,-576.76C569.73,-568.55 564.2,-558.37 559.16,-549.09"/>
<polygon fill="black" stroke="black" points="562.33,-547.6 554.49,-540.48 556.18,-550.94 562.33,-547.6"/>
</g>
<!-- kz&#45;&gt;jn -->
<g id="edge83" class="edge">
<title>kz&#45;&gt;jn</title>
<path fill="none" stroke="black" d="M129.35,-612.31C128.09,-630.44 127.41,-659.59 133,-684 141.26,-720.05 160.42,-758.29 174.25,-782.84"/>
<polygon fill="black" stroke="black" points="171.21,-784.56 179.23,-791.47 177.27,-781.06 171.21,-784.56"/>
</g>
<!-- kz&#45;&gt;ss -->
<g id="edge82" class="edge">
<title>kz&#45;&gt;ss</title>
<path fill="none" stroke="black" d="M126.4,-576.05C124.35,-568.49 121.87,-559.37 119.56,-550.85"/>
<polygon fill="black" stroke="black" points="122.95,-549.98 116.95,-541.25 116.2,-551.82 122.95,-549.98"/>
</g>
<!-- fx&#45;&gt;gp -->
<g id="edge89" class="edge">
<title>fx&#45;&gt;gp</title>
<path fill="none" stroke="black" d="M1368.36,-107.97C1373.31,-134.52 1382,-187.56 1382,-233 1382,-667 1382,-667 1382,-667 1382,-735.85 1298.6,-778.3 1249.68,-797.29"/>
<polygon fill="black" stroke="black" points="1248.49,-793.99 1240.35,-800.77 1250.94,-800.55 1248.49,-793.99"/>
</g>
<!-- dp -->
<g id="node58" class="node">
<title>dp</title>
<ellipse fill="none" stroke="black" cx="1392" cy="-18" rx="27" ry="18"/>
<text text-anchor="middle" x="1392" y="-12.95" font-family="Times,serif" font-size="14.00">dp</text>
</g>
<!-- fx&#45;&gt;dp -->
<g id="edge90" class="edge">
<title>fx&#45;&gt;dp</title>
<path fill="none" stroke="black" d="M1371.54,-72.05C1374.52,-64.32 1378.13,-54.96 1381.48,-46.27"/>
<polygon fill="black" stroke="black" points="1384.65,-47.79 1384.98,-37.2 1378.12,-45.27 1384.65,-47.79"/>
</g>
<!-- dp&#45;&gt;gp -->
<g id="edge91" class="edge">
<title>dp&#45;&gt;gp</title>
<path fill="none" stroke="black" d="M1397.53,-35.84C1405.69,-62.21 1420,-115.02 1420,-161 1420,-667 1420,-667 1420,-667 1420,-747.97 1310.58,-786.42 1251.62,-801.27"/>
<polygon fill="black" stroke="black" points="1250.93,-797.83 1242.02,-803.57 1252.56,-804.64 1250.93,-797.83"/>
</g>
</g>
</svg>
