<?xml version="1.0" encoding="UTF-8" standalone="no"?>
<!DOCTYPE svg PUBLIC "-//W3C//DTD SVG 1.1//EN"
 "http://www.w3.org/Graphics/SVG/1.1/DTD/svg11.dtd">
<!-- Generated by graphviz version 9.0.0 (20230911.1827)
 -->
<!-- Pages: 1 -->
<svg width="464pt" height="1195pt"
 viewBox="0.00 0.00 464.00 1194.50" xmlns="http://www.w3.org/2000/svg" xmlns:xlink="http://www.w3.org/1999/xlink">
<g id="graph0" class="graph" transform="scale(1 1) rotate(0) translate(4 1190.5)">
<polygon fill="white" stroke="none" points="-4,4 -4,-1190.5 460,-1190.5 460,4 -4,4"/>
<!-- AA -->
<g id="node1" class="node">
<title>AA</title>
<ellipse fill="none" stroke="black" cx="392" cy="-1168.5" rx="27" ry="18"/>
<text text-anchor="middle" x="392" y="-1163.45" font-family="Times,serif" font-size="14.00">AA</text>
</g>
<!-- AE -->
<g id="node2" class="node">
<title>AE</title>
<ellipse fill="none" stroke="black" cx="392" cy="-1080" rx="27" ry="18"/>
<text text-anchor="middle" x="392" y="-1074.95" font-family="Times,serif" font-size="14.00">AE</text>
</g>
<!-- AA&#45;&#45;AE -->
<g id="edge1" class="edge">
<title>AA&#45;&#45;AE</title>
<path fill="none" stroke="black" d="M392,-1150.41C392,-1135.34 392,-1113.49 392,-1098.35"/>
<text text-anchor="middle" x="398.75" y="-1119.2" font-family="Times,serif" font-size="14.00">85</text>
</g>
<!-- AF -->
<g id="node10" class="node">
<title>AF</title>
<ellipse fill="none" stroke="black" cx="347" cy="-991.5" rx="27" ry="18"/>
<text text-anchor="middle" x="347" y="-986.45" font-family="Times,serif" font-size="14.00">AF</text>
</g>
<!-- AE&#45;&#45;AF -->
<g id="edge9" class="edge">
<title>AE&#45;&#45;AF</title>
<path fill="none" stroke="black" d="M383.54,-1062.73C375.54,-1047.36 363.61,-1024.43 355.58,-1008.99"/>
<text text-anchor="middle" x="383.12" y="-1030.7" font-family="Times,serif" font-size="14.00">224</text>
</g>
<!-- AL -->
<g id="node11" class="node">
<title>AL</title>
<ellipse fill="none" stroke="black" cx="419" cy="-991.5" rx="27" ry="18"/>
<text text-anchor="middle" x="419" y="-986.45" font-family="Times,serif" font-size="14.00">AL</text>
</g>
<!-- AE&#45;&#45;AL -->
<g id="edge8" class="edge">
<title>AE&#45;&#45;AL</title>
<path fill="none" stroke="black" d="M397.33,-1061.91C402.07,-1046.75 408.95,-1024.71 413.68,-1009.55"/>
<text text-anchor="middle" x="417.12" y="-1030.7" font-family="Times,serif" font-size="14.00">270</text>
</g>
<!-- AB -->
<g id="node3" class="node">
<title>AB</title>
<ellipse fill="none" stroke="black" cx="27" cy="-106.5" rx="27" ry="18"/>
<text text-anchor="middle" x="27" y="-101.45" font-family="Times,serif" font-size="14.00">AB</text>
</g>
<!-- BJ -->
<g id="node4" class="node">
<title>BJ</title>
<ellipse fill="none" stroke="black" cx="82" cy="-18" rx="27" ry="18"/>
<text text-anchor="middle" x="82" y="-12.95" font-family="Times,serif" font-size="14.00">BJ</text>
</g>
<!-- AB&#45;&#45;BJ -->
<g id="edge2" class="edge">
<title>AB&#45;&#45;BJ</title>
<path fill="none" stroke="black" d="M34.96,-88.84C40.1,-78.55 47.19,-65.2 54.5,-54 58.89,-47.27 64.25,-40.23 69.07,-34.25"/>
<text text-anchor="middle" x="61.75" y="-57.2" font-family="Times,serif" font-size="14.00">17</text>
</g>
<!-- AC -->
<g id="node5" class="node">
<title>AC</title>
<ellipse fill="none" stroke="black" cx="196" cy="-1168.5" rx="27" ry="18"/>
<text text-anchor="middle" x="196" y="-1163.45" font-family="Times,serif" font-size="14.00">AC</text>
</g>
<!-- AI -->
<g id="node6" class="node">
<title>AI</title>
<ellipse fill="none" stroke="black" cx="196" cy="-903" rx="27" ry="18"/>
<text text-anchor="middle" x="196" y="-897.95" font-family="Times,serif" font-size="14.00">AI</text>
</g>
<!-- AC&#45;&#45;AI -->
<g id="edge3" class="edge">
<title>AC&#45;&#45;AI</title>
<path fill="none" stroke="black" d="M196,-1150.21C196,-1102.47 196,-969.17 196,-921.35"/>
<text text-anchor="middle" x="206.12" y="-1030.7" font-family="Times,serif" font-size="14.00">118</text>
</g>
<!-- AG -->
<g id="node7" class="node">
<title>AG</title>
<ellipse fill="none" stroke="black" cx="124" cy="-903" rx="27" ry="18"/>
<text text-anchor="middle" x="124" y="-897.95" font-family="Times,serif" font-size="14.00">AG</text>
</g>
<!-- AC&#45;&#45;AG -->
<g id="edge4" class="edge">
<title>AC&#45;&#45;AG</title>
<path fill="none" stroke="black" d="M191.39,-1150.62C178.41,-1103.14 141.71,-968.81 128.67,-921.08"/>
<text text-anchor="middle" x="172.12" y="-1030.7" font-family="Times,serif" font-size="14.00">122</text>
</g>
<!-- AD -->
<g id="node8" class="node">
<title>AD</title>
<ellipse fill="none" stroke="black" cx="273" cy="-1080" rx="27" ry="18"/>
<text text-anchor="middle" x="273" y="-1074.95" font-family="Times,serif" font-size="14.00">AD</text>
</g>
<!-- AC&#45;&#45;AD -->
<g id="edge5" class="edge">
<title>AC&#45;&#45;AD</title>
<path fill="none" stroke="black" d="M209.41,-1152.43C223.55,-1136.56 245.67,-1111.71 259.74,-1095.89"/>
<text text-anchor="middle" x="252.12" y="-1119.2" font-family="Times,serif" font-size="14.00">162</text>
</g>
<!-- AJ -->
<g id="node13" class="node">
<title>AJ</title>
<ellipse fill="none" stroke="black" cx="124" cy="-814.5" rx="27" ry="18"/>
<text text-anchor="middle" x="124" y="-809.45" font-family="Times,serif" font-size="14.00">AJ</text>
</g>
<!-- AI&#45;&#45;AJ -->
<g id="edge17" class="edge">
<title>AI&#45;&#45;AJ</title>
<path fill="none" stroke="black" d="M181.19,-887.79C174.97,-881.6 167.8,-874.13 161.75,-867 152,-855.5 141.95,-841.69 134.68,-831.26"/>
<text text-anchor="middle" x="172.12" y="-853.7" font-family="Times,serif" font-size="14.00">122</text>
</g>
<!-- AP -->
<g id="node16" class="node">
<title>AP</title>
<ellipse fill="none" stroke="black" cx="195" cy="-637.5" rx="27" ry="18"/>
<text text-anchor="middle" x="195" y="-632.45" font-family="Times,serif" font-size="14.00">AP</text>
</g>
<!-- AI&#45;&#45;AP -->
<g id="edge16" class="edge">
<title>AI&#45;&#45;AP</title>
<path fill="none" stroke="black" d="M195.93,-884.71C195.75,-836.97 195.25,-703.67 195.07,-655.85"/>
<text text-anchor="middle" x="206.12" y="-765.2" font-family="Times,serif" font-size="14.00">148</text>
</g>
<!-- AG&#45;&#45;AJ -->
<g id="edge11" class="edge">
<title>AG&#45;&#45;AJ</title>
<path fill="none" stroke="black" d="M124,-884.91C124,-869.84 124,-847.99 124,-832.85"/>
<text text-anchor="middle" x="130.75" y="-853.7" font-family="Times,serif" font-size="14.00">74</text>
</g>
<!-- AK -->
<g id="node14" class="node">
<title>AK</title>
<ellipse fill="none" stroke="black" cx="57" cy="-726" rx="27" ry="18"/>
<text text-anchor="middle" x="57" y="-720.95" font-family="Times,serif" font-size="14.00">AK</text>
</g>
<!-- AG&#45;&#45;AK -->
<g id="edge12" class="edge">
<title>AG&#45;&#45;AK</title>
<path fill="none" stroke="black" d="M108.41,-887.96C95.13,-874.99 76.8,-854.46 67.75,-832.5 55.68,-803.22 54.98,-765.66 55.81,-744.17"/>
<text text-anchor="middle" x="78.12" y="-809.45" font-family="Times,serif" font-size="14.00">504</text>
</g>
<!-- AH -->
<g id="node9" class="node">
<title>AH</title>
<ellipse fill="none" stroke="black" cx="273" cy="-991.5" rx="27" ry="18"/>
<text text-anchor="middle" x="273" y="-986.45" font-family="Times,serif" font-size="14.00">AH</text>
</g>
<!-- AD&#45;&#45;AH -->
<g id="edge6" class="edge">
<title>AD&#45;&#45;AH</title>
<path fill="none" stroke="black" d="M273,-1061.91C273,-1046.84 273,-1024.99 273,-1009.85"/>
<text text-anchor="middle" x="283.12" y="-1030.7" font-family="Times,serif" font-size="14.00">158</text>
</g>
<!-- AD&#45;&#45;AF -->
<g id="edge7" class="edge">
<title>AD&#45;&#45;AF</title>
<path fill="none" stroke="black" d="M285.89,-1063.93C299.39,-1048.15 320.47,-1023.51 334.01,-1007.68"/>
<text text-anchor="middle" x="327.12" y="-1030.7" font-family="Times,serif" font-size="14.00">212</text>
</g>
<!-- AH&#45;&#45;AI -->
<g id="edge14" class="edge">
<title>AH&#45;&#45;AI</title>
<path fill="none" stroke="black" d="M258.4,-976.11C252.22,-969.88 245.01,-962.45 238.75,-955.5 228.01,-943.59 216.43,-929.56 208.03,-919.15"/>
<text text-anchor="middle" x="249.12" y="-942.2" font-family="Times,serif" font-size="14.00">134</text>
</g>
<!-- AM -->
<g id="node12" class="node">
<title>AM</title>
<ellipse fill="none" stroke="black" cx="350" cy="-903" rx="27" ry="18"/>
<text text-anchor="middle" x="350" y="-897.95" font-family="Times,serif" font-size="14.00">AM</text>
</g>
<!-- AH&#45;&#45;AM -->
<g id="edge15" class="edge">
<title>AH&#45;&#45;AM</title>
<path fill="none" stroke="black" d="M286.41,-975.43C300.55,-959.56 322.67,-934.71 336.74,-918.89"/>
<text text-anchor="middle" x="329.12" y="-942.2" font-family="Times,serif" font-size="14.00">204</text>
</g>
<!-- AO -->
<g id="node15" class="node">
<title>AO</title>
<ellipse fill="none" stroke="black" cx="275" cy="-726" rx="27" ry="18"/>
<text text-anchor="middle" x="275" y="-720.95" font-family="Times,serif" font-size="14.00">AO</text>
</g>
<!-- AH&#45;&#45;AO -->
<g id="edge13" class="edge">
<title>AH&#45;&#45;AO</title>
<path fill="none" stroke="black" d="M273.13,-973.21C273.49,-925.47 274.51,-792.17 274.87,-744.35"/>
<text text-anchor="middle" x="285.12" y="-853.7" font-family="Times,serif" font-size="14.00">138</text>
</g>
<!-- AF&#45;&#45;AM -->
<g id="edge10" class="edge">
<title>AF&#45;&#45;AM</title>
<path fill="none" stroke="black" d="M347.59,-973.41C348.12,-958.34 348.87,-936.49 349.4,-921.35"/>
<text text-anchor="middle" x="358.12" y="-942.2" font-family="Times,serif" font-size="14.00">106</text>
</g>
<!-- AL&#45;&#45;AM -->
<g id="edge22" class="edge">
<title>AL&#45;&#45;AM</title>
<path fill="none" stroke="black" d="M406.66,-975.04C394.1,-959.29 374.75,-935.03 362.23,-919.33"/>
<text text-anchor="middle" x="396.75" y="-942.2" font-family="Times,serif" font-size="14.00">88</text>
</g>
<!-- AQ -->
<g id="node19" class="node">
<title>AQ</title>
<ellipse fill="none" stroke="black" cx="414" cy="-726" rx="27" ry="18"/>
<text text-anchor="middle" x="414" y="-720.95" font-family="Times,serif" font-size="14.00">AQ</text>
</g>
<!-- AL&#45;&#45;AQ -->
<g id="edge21" class="edge">
<title>AL&#45;&#45;AQ</title>
<path fill="none" stroke="black" d="M418.67,-973.21C417.77,-925.47 415.24,-792.17 414.33,-744.35"/>
<text text-anchor="middle" x="426.12" y="-853.7" font-family="Times,serif" font-size="14.00">130</text>
</g>
<!-- AN -->
<g id="node20" class="node">
<title>AN</title>
<ellipse fill="none" stroke="black" cx="353" cy="-814.5" rx="27" ry="18"/>
<text text-anchor="middle" x="353" y="-809.45" font-family="Times,serif" font-size="14.00">AN</text>
</g>
<!-- AM&#45;&#45;AN -->
<g id="edge23" class="edge">
<title>AM&#45;&#45;AN</title>
<path fill="none" stroke="black" d="M350.59,-884.91C351.12,-869.84 351.87,-847.99 352.4,-832.85"/>
<text text-anchor="middle" x="357.75" y="-853.7" font-family="Times,serif" font-size="14.00">74</text>
</g>
<!-- AJ&#45;&#45;AK -->
<g id="edge19" class="edge">
<title>AJ&#45;&#45;AK</title>
<path fill="none" stroke="black" d="M109.15,-799.05C103.17,-792.93 96.37,-785.6 90.75,-778.5 81.86,-767.27 73.03,-753.69 66.63,-743.29"/>
<text text-anchor="middle" x="101.12" y="-765.2" font-family="Times,serif" font-size="14.00">158</text>
</g>
<!-- AR -->
<g id="node17" class="node">
<title>AR</title>
<ellipse fill="none" stroke="black" cx="129" cy="-549" rx="27" ry="18"/>
<text text-anchor="middle" x="129" y="-543.95" font-family="Times,serif" font-size="14.00">AR</text>
</g>
<!-- AJ&#45;&#45;AR -->
<g id="edge18" class="edge">
<title>AJ&#45;&#45;AR</title>
<path fill="none" stroke="black" d="M124.33,-796.21C125.23,-748.47 127.76,-615.17 128.67,-567.35"/>
<text text-anchor="middle" x="137.12" y="-676.7" font-family="Times,serif" font-size="14.00">176</text>
</g>
<!-- AS -->
<g id="node18" class="node">
<title>AS</title>
<ellipse fill="none" stroke="black" cx="57" cy="-460.5" rx="27" ry="18"/>
<text text-anchor="middle" x="57" y="-455.45" font-family="Times,serif" font-size="14.00">AS</text>
</g>
<!-- AK&#45;&#45;AS -->
<g id="edge20" class="edge">
<title>AK&#45;&#45;AS</title>
<path fill="none" stroke="black" d="M57,-707.71C57,-659.97 57,-526.67 57,-478.85"/>
<text text-anchor="middle" x="67.12" y="-588.2" font-family="Times,serif" font-size="14.00">192</text>
</g>
<!-- AO&#45;&#45;AP -->
<g id="edge28" class="edge">
<title>AO&#45;&#45;AP</title>
<path fill="none" stroke="black" d="M261.43,-710.33C246.72,-694.42 223.37,-669.18 208.64,-653.25"/>
<text text-anchor="middle" x="253.12" y="-676.7" font-family="Times,serif" font-size="14.00">184</text>
</g>
<!-- AU -->
<g id="node22" class="node">
<title>AU</title>
<ellipse fill="none" stroke="black" cx="279" cy="-637.5" rx="27" ry="18"/>
<text text-anchor="middle" x="279" y="-632.45" font-family="Times,serif" font-size="14.00">AU</text>
</g>
<!-- AO&#45;&#45;AU -->
<g id="edge27" class="edge">
<title>AO&#45;&#45;AU</title>
<path fill="none" stroke="black" d="M275.79,-707.91C276.49,-692.84 277.5,-670.99 278.2,-655.85"/>
<text text-anchor="middle" x="288.12" y="-676.7" font-family="Times,serif" font-size="14.00">108</text>
</g>
<!-- AP&#45;&#45;AR -->
<g id="edge30" class="edge">
<title>AP&#45;&#45;AR</title>
<path fill="none" stroke="black" d="M183.2,-621.04C171.26,-605.39 152.9,-581.33 140.92,-565.62"/>
<text text-anchor="middle" x="174.75" y="-588.2" font-family="Times,serif" font-size="14.00">82</text>
</g>
<!-- AW -->
<g id="node23" class="node">
<title>AW</title>
<ellipse fill="none" stroke="black" cx="203" cy="-549" rx="27" ry="18"/>
<text text-anchor="middle" x="203" y="-543.95" font-family="Times,serif" font-size="14.00">AW</text>
</g>
<!-- AP&#45;&#45;AW -->
<g id="edge29" class="edge">
<title>AP&#45;&#45;AW</title>
<path fill="none" stroke="black" d="M194.44,-619.28C194.31,-609.25 194.5,-596.38 195.75,-585 196.4,-579.08 197.58,-572.68 198.81,-566.99"/>
<text text-anchor="middle" x="206.12" y="-588.2" font-family="Times,serif" font-size="14.00">120</text>
</g>
<!-- AR&#45;&#45;AS -->
<g id="edge33" class="edge">
<title>AR&#45;&#45;AS</title>
<path fill="none" stroke="black" d="M116.46,-532.93C103.32,-517.15 82.81,-492.51 69.64,-476.68"/>
<text text-anchor="middle" x="110.12" y="-499.7" font-family="Times,serif" font-size="14.00">234</text>
</g>
<!-- AX -->
<g id="node25" class="node">
<title>AX</title>
<ellipse fill="none" stroke="black" cx="137" cy="-460.5" rx="27" ry="18"/>
<text text-anchor="middle" x="137" y="-455.45" font-family="Times,serif" font-size="14.00">AX</text>
</g>
<!-- AR&#45;&#45;AX -->
<g id="edge32" class="edge">
<title>AR&#45;&#45;AX</title>
<path fill="none" stroke="black" d="M130.58,-530.83C131.5,-520.82 132.69,-507.94 133.75,-496.5 134.28,-490.79 134.86,-484.55 135.38,-478.95"/>
<text text-anchor="middle" x="144.12" y="-499.7" font-family="Times,serif" font-size="14.00">120</text>
</g>
<!-- AY -->
<g id="node26" class="node">
<title>AY</title>
<ellipse fill="none" stroke="black" cx="59" cy="-372" rx="27" ry="18"/>
<text text-anchor="middle" x="59" y="-366.95" font-family="Times,serif" font-size="14.00">AY</text>
</g>
<!-- AS&#45;&#45;AY -->
<g id="edge34" class="edge">
<title>AS&#45;&#45;AY</title>
<path fill="none" stroke="black" d="M55.36,-442.33C54.62,-432.31 54.06,-419.43 54.75,-408 55.1,-402.26 55.76,-396.01 56.47,-390.41"/>
<text text-anchor="middle" x="65.12" y="-411.2" font-family="Times,serif" font-size="14.00">164</text>
</g>
<!-- AT -->
<g id="node24" class="node">
<title>AT</title>
<ellipse fill="none" stroke="black" cx="414" cy="-637.5" rx="27" ry="18"/>
<text text-anchor="middle" x="414" y="-632.45" font-family="Times,serif" font-size="14.00">AT</text>
</g>
<!-- AQ&#45;&#45;AT -->
<g id="edge31" class="edge">
<title>AQ&#45;&#45;AT</title>
<path fill="none" stroke="black" d="M414,-707.91C414,-692.84 414,-670.99 414,-655.85"/>
<text text-anchor="middle" x="424.12" y="-676.7" font-family="Times,serif" font-size="14.00">170</text>
</g>
<!-- AN&#45;&#45;AO -->
<g id="edge25" class="edge">
<title>AN&#45;&#45;AO</title>
<path fill="none" stroke="black" d="M339.41,-798.43C325.1,-782.56 302.69,-757.71 288.43,-741.89"/>
<text text-anchor="middle" x="327.75" y="-765.2" font-family="Times,serif" font-size="14.00">32</text>
</g>
<!-- AN&#45;&#45;AQ -->
<g id="edge26" class="edge">
<title>AN&#45;&#45;AQ</title>
<path fill="none" stroke="black" d="M363.01,-797.5C369.56,-787.22 378.42,-773.65 386.75,-762 391.41,-755.49 396.78,-748.49 401.52,-742.47"/>
<text text-anchor="middle" x="396.12" y="-765.2" font-family="Times,serif" font-size="14.00">136</text>
</g>
<!-- AV -->
<g id="node21" class="node">
<title>AV</title>
<ellipse fill="none" stroke="black" cx="355" cy="-549" rx="27" ry="18"/>
<text text-anchor="middle" x="355" y="-543.95" font-family="Times,serif" font-size="14.00">AV</text>
</g>
<!-- AN&#45;&#45;AV -->
<g id="edge24" class="edge">
<title>AN&#45;&#45;AV</title>
<path fill="none" stroke="black" d="M353.13,-796.21C353.49,-748.47 354.51,-615.17 354.87,-567.35"/>
<text text-anchor="middle" x="364.12" y="-676.7" font-family="Times,serif" font-size="14.00">198</text>
</g>
<!-- BE -->
<g id="node29" class="node">
<title>BE</title>
<ellipse fill="none" stroke="black" cx="375" cy="-460.5" rx="27" ry="18"/>
<text text-anchor="middle" x="375" y="-455.45" font-family="Times,serif" font-size="14.00">BE</text>
</g>
<!-- AV&#45;&#45;BE -->
<g id="edge40" class="edge">
<title>AV&#45;&#45;BE</title>
<path fill="none" stroke="black" d="M358.95,-530.91C362.46,-515.75 367.55,-493.71 371.06,-478.55"/>
<text text-anchor="middle" x="376.12" y="-499.7" font-family="Times,serif" font-size="14.00">212</text>
</g>
<!-- AU&#45;&#45;AV -->
<g id="edge39" class="edge">
<title>AU&#45;&#45;AV</title>
<path fill="none" stroke="black" d="M292.24,-621.43C306.19,-605.56 328.02,-580.71 341.91,-564.89"/>
<text text-anchor="middle" x="330.75" y="-588.2" font-family="Times,serif" font-size="14.00">30</text>
</g>
<!-- AU&#45;&#45;AW -->
<g id="edge38" class="edge">
<title>AU&#45;&#45;AW</title>
<path fill="none" stroke="black" d="M265.76,-621.43C251.81,-605.56 229.98,-580.71 216.09,-564.89"/>
<text text-anchor="middle" x="258.12" y="-588.2" font-family="Times,serif" font-size="14.00">184</text>
</g>
<!-- BA -->
<g id="node28" class="node">
<title>BA</title>
<ellipse fill="none" stroke="black" cx="281" cy="-549" rx="27" ry="18"/>
<text text-anchor="middle" x="281" y="-543.95" font-family="Times,serif" font-size="14.00">BA</text>
</g>
<!-- AU&#45;&#45;BA -->
<g id="edge37" class="edge">
<title>AU&#45;&#45;BA</title>
<path fill="none" stroke="black" d="M279.4,-619.41C279.74,-604.34 280.25,-582.49 280.6,-567.35"/>
<text text-anchor="middle" x="291.12" y="-588.2" font-family="Times,serif" font-size="14.00">172</text>
</g>
<!-- AW&#45;&#45;AX -->
<g id="edge42" class="edge">
<title>AW&#45;&#45;AX</title>
<path fill="none" stroke="black" d="M191.2,-532.54C179.26,-516.89 160.9,-492.83 148.92,-477.12"/>
<text text-anchor="middle" x="182.75" y="-499.7" font-family="Times,serif" font-size="14.00">82</text>
</g>
<!-- BB -->
<g id="node30" class="node">
<title>BB</title>
<ellipse fill="none" stroke="black" cx="205" cy="-283.5" rx="27" ry="18"/>
<text text-anchor="middle" x="205" y="-278.45" font-family="Times,serif" font-size="14.00">BB</text>
</g>
<!-- AW&#45;&#45;BB -->
<g id="edge41" class="edge">
<title>AW&#45;&#45;BB</title>
<path fill="none" stroke="black" d="M203.13,-530.71C203.49,-482.97 204.51,-349.67 204.87,-301.85"/>
<text text-anchor="middle" x="215.12" y="-411.2" font-family="Times,serif" font-size="14.00">150</text>
</g>
<!-- AT&#45;&#45;AV -->
<g id="edge36" class="edge">
<title>AT&#45;&#45;AV</title>
<path fill="none" stroke="black" d="M403.18,-620.63C392.53,-605.03 376.37,-581.34 365.75,-565.76"/>
<text text-anchor="middle" x="399.12" y="-588.2" font-family="Times,serif" font-size="14.00">208</text>
</g>
<!-- BD -->
<g id="node27" class="node">
<title>BD</title>
<ellipse fill="none" stroke="black" cx="429" cy="-549" rx="27" ry="18"/>
<text text-anchor="middle" x="429" y="-543.95" font-family="Times,serif" font-size="14.00">BD</text>
</g>
<!-- AT&#45;&#45;BD -->
<g id="edge35" class="edge">
<title>AT&#45;&#45;BD</title>
<path fill="none" stroke="black" d="M416.96,-619.41C419.58,-604.34 423.37,-582.49 425.99,-567.35"/>
<text text-anchor="middle" x="432.12" y="-588.2" font-family="Times,serif" font-size="14.00">294</text>
</g>
<!-- AX&#45;&#45;AY -->
<g id="edge44" class="edge">
<title>AX&#45;&#45;AY</title>
<path fill="none" stroke="black" d="M123.41,-444.43C109.1,-428.56 86.69,-403.71 72.43,-387.89"/>
<text text-anchor="middle" x="115.12" y="-411.2" font-family="Times,serif" font-size="14.00">114</text>
</g>
<!-- AZ -->
<g id="node31" class="node">
<title>AZ</title>
<ellipse fill="none" stroke="black" cx="138" cy="-372" rx="27" ry="18"/>
<text text-anchor="middle" x="138" y="-366.95" font-family="Times,serif" font-size="14.00">AZ</text>
</g>
<!-- AX&#45;&#45;AZ -->
<g id="edge43" class="edge">
<title>AX&#45;&#45;AZ</title>
<path fill="none" stroke="black" d="M137.2,-442.41C137.37,-427.34 137.62,-405.49 137.8,-390.35"/>
<text text-anchor="middle" x="144.75" y="-411.2" font-family="Times,serif" font-size="14.00">44</text>
</g>
<!-- BC -->
<g id="node32" class="node">
<title>BC</title>
<ellipse fill="none" stroke="black" cx="82" cy="-283.5" rx="27" ry="18"/>
<text text-anchor="middle" x="82" y="-278.45" font-family="Times,serif" font-size="14.00">BC</text>
</g>
<!-- AY&#45;&#45;BC -->
<g id="edge45" class="edge">
<title>AY&#45;&#45;BC</title>
<path fill="none" stroke="black" d="M56.95,-353.95C56.28,-343.74 56.42,-330.64 59.75,-319.5 61.81,-312.6 65.66,-305.75 69.58,-299.97"/>
<text text-anchor="middle" x="70.12" y="-322.7" font-family="Times,serif" font-size="14.00">136</text>
</g>
<!-- BD&#45;&#45;BE -->
<g id="edge55" class="edge">
<title>BD&#45;&#45;BE</title>
<path fill="none" stroke="black" d="M419.1,-532.13C409.41,-516.62 394.75,-493.13 385.02,-477.56"/>
<text text-anchor="middle" x="416.12" y="-499.7" font-family="Times,serif" font-size="14.00">202</text>
</g>
<!-- BG -->
<g id="node36" class="node">
<title>BG</title>
<ellipse fill="none" stroke="black" cx="375" cy="-372" rx="27" ry="18"/>
<text text-anchor="middle" x="375" y="-366.95" font-family="Times,serif" font-size="14.00">BG</text>
</g>
<!-- BD&#45;&#45;BG -->
<g id="edge54" class="edge">
<title>BD&#45;&#45;BG</title>
<path fill="none" stroke="black" d="M430.95,-530.71C431.68,-520.66 431.93,-507.78 430,-496.5 422.97,-455.32 399.12,-411.7 385.25,-388.94"/>
<text text-anchor="middle" x="435.12" y="-455.45" font-family="Times,serif" font-size="14.00">422</text>
</g>
<!-- BA&#45;&#45;BE -->
<g id="edge51" class="edge">
<title>BA&#45;&#45;BE</title>
<path fill="none" stroke="black" d="M296.1,-534.1C313.54,-518.06 342.07,-491.8 359.62,-475.65"/>
<text text-anchor="middle" x="346.12" y="-499.7" font-family="Times,serif" font-size="14.00">158</text>
</g>
<!-- BA&#45;&#45;BB -->
<g id="edge50" class="edge">
<title>BA&#45;&#45;BB</title>
<path fill="none" stroke="black" d="M277.07,-530.89C268.13,-492.6 245.01,-397.27 219,-319.5 216.97,-313.42 214.44,-306.86 212.09,-301.09"/>
<text text-anchor="middle" x="256.75" y="-411.2" font-family="Times,serif" font-size="14.00">70</text>
</g>
<!-- BF -->
<g id="node34" class="node">
<title>BF</title>
<ellipse fill="none" stroke="black" cx="303" cy="-460.5" rx="27" ry="18"/>
<text text-anchor="middle" x="303" y="-455.45" font-family="Times,serif" font-size="14.00">BF</text>
</g>
<!-- BA&#45;&#45;BF -->
<g id="edge49" class="edge">
<title>BA&#45;&#45;BF</title>
<path fill="none" stroke="black" d="M279.03,-530.97C278.39,-520.78 278.54,-507.67 281.75,-496.5 283.72,-489.67 287.39,-482.83 291.13,-477.04"/>
<text text-anchor="middle" x="292.12" y="-499.7" font-family="Times,serif" font-size="14.00">106</text>
</g>
<!-- BE&#45;&#45;BG -->
<g id="edge56" class="edge">
<title>BE&#45;&#45;BG</title>
<path fill="none" stroke="black" d="M375,-442.41C375,-427.34 375,-405.49 375,-390.35"/>
<text text-anchor="middle" x="381.75" y="-411.2" font-family="Times,serif" font-size="14.00">60</text>
</g>
<!-- BH -->
<g id="node35" class="node">
<title>BH</title>
<ellipse fill="none" stroke="black" cx="205" cy="-195" rx="27" ry="18"/>
<text text-anchor="middle" x="205" y="-189.95" font-family="Times,serif" font-size="14.00">BH</text>
</g>
<!-- BB&#45;&#45;BH -->
<g id="edge52" class="edge">
<title>BB&#45;&#45;BH</title>
<path fill="none" stroke="black" d="M205,-265.41C205,-250.34 205,-228.49 205,-213.35"/>
<text text-anchor="middle" x="215.12" y="-234.2" font-family="Times,serif" font-size="14.00">164</text>
</g>
<!-- AZ&#45;&#45;BB -->
<g id="edge48" class="edge">
<title>AZ&#45;&#45;BB</title>
<path fill="none" stroke="black" d="M147.21,-354.64C153.37,-344.21 161.93,-330.62 170.75,-319.5 176.56,-312.17 183.7,-304.68 189.96,-298.52"/>
<text text-anchor="middle" x="181.12" y="-322.7" font-family="Times,serif" font-size="14.00">128</text>
</g>
<!-- AZ&#45;&#45;BC -->
<g id="edge47" class="edge">
<title>AZ&#45;&#45;BC</title>
<path fill="none" stroke="black" d="M121.8,-357.55C115.24,-351.48 108,-343.9 102.75,-336 95.71,-325.4 90.42,-312.04 86.94,-301.58"/>
<text text-anchor="middle" x="113.12" y="-322.7" font-family="Times,serif" font-size="14.00">222</text>
</g>
<!-- BI -->
<g id="node33" class="node">
<title>BI</title>
<ellipse fill="none" stroke="black" cx="137" cy="-106.5" rx="27" ry="18"/>
<text text-anchor="middle" x="137" y="-101.45" font-family="Times,serif" font-size="14.00">BI</text>
</g>
<!-- AZ&#45;&#45;BI -->
<g id="edge46" class="edge">
<title>AZ&#45;&#45;BI</title>
<path fill="none" stroke="black" d="M137.93,-353.71C137.75,-305.97 137.25,-172.67 137.07,-124.85"/>
<text text-anchor="middle" x="148.12" y="-234.2" font-family="Times,serif" font-size="14.00">198</text>
</g>
<!-- BC&#45;&#45;BJ -->
<g id="edge53" class="edge">
<title>BC&#45;&#45;BJ</title>
<path fill="none" stroke="black" d="M82,-265.21C82,-217.47 82,-84.17 82,-36.35"/>
<text text-anchor="middle" x="92.12" y="-145.7" font-family="Times,serif" font-size="14.00">152</text>
</g>
<!-- BI&#45;&#45;BJ -->
<g id="edge60" class="edge">
<title>BI&#45;&#45;BJ</title>
<path fill="none" stroke="black" d="M126.91,-89.63C117.05,-74.12 102.11,-50.63 92.21,-35.06"/>
<text text-anchor="middle" x="125.12" y="-57.2" font-family="Times,serif" font-size="14.00">280</text>
</g>
<!-- BF&#45;&#45;BH -->
<g id="edge57" class="edge">
<title>BF&#45;&#45;BH</title>
<path fill="none" stroke="black" d="M299.33,-442.17C290.62,-403.03 266.61,-305.43 229,-231 225.61,-224.29 221.11,-217.37 216.93,-211.48"/>
<text text-anchor="middle" x="281.12" y="-322.7" font-family="Times,serif" font-size="14.00">228</text>
</g>
<!-- BF&#45;&#45;BG -->
<g id="edge58" class="edge">
<title>BF&#45;&#45;BG</title>
<path fill="none" stroke="black" d="M315.54,-444.43C328.68,-428.65 349.19,-404.01 362.36,-388.18"/>
<text text-anchor="middle" x="355.12" y="-411.2" font-family="Times,serif" font-size="14.00">180</text>
</g>
<!-- BH&#45;&#45;BI -->
<g id="edge59" class="edge">
<title>BH&#45;&#45;BI</title>
<path fill="none" stroke="black" d="M192.84,-178.54C180.47,-162.79 161.39,-138.53 149.05,-122.83"/>
<text text-anchor="middle" x="188.12" y="-145.7" font-family="Times,serif" font-size="14.00">118</text>
</g>
</g>
</svg>
